M48
; DRILL file {KiCad 7.0.7} date 2024 July 03, Wednesday 20:03:55
; FORMAT={-:-/ absolute / metric / decimal}
; #@! TF.CreationDate,2024-07-03T20:03:55-05:00
; #@! TF.GenerationSoftware,Kicad,Pcbnew,7.0.7
; #@! TF.FileFunction,Plated,1,4,PTH
FMAT,2
METRIC
; #@! TA.AperFunction,Plated,PTH,ViaDrill
T1C0.400
; #@! TA.AperFunction,Plated,PTH,ComponentDrill
T2C0.500
; #@! TA.AperFunction,Plated,PTH,ComponentDrill
T3C0.600
; #@! TA.AperFunction,Plated,PTH,ComponentDrill
T4C0.750
; #@! TA.AperFunction,Plated,PTH,ComponentDrill
T5C0.950
; #@! TA.AperFunction,Plated,PTH,ComponentDrill
T6C1.000
; #@! TA.AperFunction,Plated,PTH,ComponentDrill
T7C1.100
%
G90
G05
T1
X141.176Y-62.23
X142.494Y-62.484
X146.304Y-62.23
X146.558Y-66.04
X147.574Y-58.081
X147.574Y-74.422
X150.622Y-69.65
X151.13Y-59.182
X151.384Y-68.072
X153.559Y-71.009
X155.448Y-70.612
X156.718Y-58.674
X158.407Y-71.055
X158.75Y-60.198
X159.512Y-75.221
X160.207Y-64.77
X160.782Y-74.93
X161.036Y-73.66
X161.29Y-60.96
X161.798Y-61.976
X162.306Y-60.198
X162.56Y-72.666
X163.068Y-60.96
X163.322Y-57.404
X165.029Y-57.885
X166.116Y-75.184
X166.964Y-74.638
X167.894Y-75.363
X169.672Y-57.912
X170.504Y-58.466
X173.482Y-61.294
X173.698Y-71.902
X174.81Y-72.861
X175.768Y-73.152
X176.276Y-58.42
X176.276Y-61.722
X177.546Y-67.056
X181.864Y-67.564
X183.134Y-72.644
X183.134Y-74.968
X185.166Y-61.294
X185.166Y-63.246
X186.436Y-72.136
X186.944Y-67.564
X186.944Y-70.358
X190.754Y-71.12
X193.294Y-61.976
X193.802Y-66.294
X194.31Y-74.422
X203.962Y-67.31
X204.008Y-65.606
X205.99Y-71.878
X208.026Y-58.928
X208.026Y-64.008
X208.28Y-60.706
X209.804Y-70.612
X210.058Y-68.072
X215.9Y-70.612
X217.424Y-67.056
T2
X179.324Y-74.422
X180.574Y-74.422
X206.314Y-68.081
X206.314Y-69.331
T3
X188.976Y-72.375
X188.976Y-73.875
T4
X144.272Y-70.506
X144.272Y-72.506
T5
X212.139Y-59.73
X212.139Y-62.23
X212.139Y-64.73
T6
X148.661Y-71.871
X151.201Y-71.871
T7
X178.816Y-58.663
X178.816Y-65.163
X183.316Y-58.663
X183.316Y-65.163
X187.046Y-58.715
X187.046Y-65.215
X191.546Y-58.715
X191.546Y-65.215
T0
M30
