%TF.GenerationSoftware,KiCad,Pcbnew,7.0.7*%
%TF.CreationDate,2024-07-03T20:03:01-05:00*%
%TF.ProjectId,LightsaberDesign,4c696768-7473-4616-9265-724465736967,rev?*%
%TF.SameCoordinates,Original*%
%TF.FileFunction,Copper,L3,Inr*%
%TF.FilePolarity,Positive*%
%FSLAX46Y46*%
G04 Gerber Fmt 4.6, Leading zero omitted, Abs format (unit mm)*
G04 Created by KiCad (PCBNEW 7.0.7) date 2024-07-03 20:03:01*
%MOMM*%
%LPD*%
G01*
G04 APERTURE LIST*
G04 Aperture macros list*
%AMRoundRect*
0 Rectangle with rounded corners*
0 $1 Rounding radius*
0 $2 $3 $4 $5 $6 $7 $8 $9 X,Y pos of 4 corners*
0 Add a 4 corners polygon primitive as box body*
4,1,4,$2,$3,$4,$5,$6,$7,$8,$9,$2,$3,0*
0 Add four circle primitives for the rounded corners*
1,1,$1+$1,$2,$3*
1,1,$1+$1,$4,$5*
1,1,$1+$1,$6,$7*
1,1,$1+$1,$8,$9*
0 Add four rect primitives between the rounded corners*
20,1,$1+$1,$2,$3,$4,$5,0*
20,1,$1+$1,$4,$5,$6,$7,0*
20,1,$1+$1,$6,$7,$8,$9,0*
20,1,$1+$1,$8,$9,$2,$3,0*%
G04 Aperture macros list end*
%TA.AperFunction,ComponentPad*%
%ADD10C,2.000000*%
%TD*%
%TA.AperFunction,ComponentPad*%
%ADD11RoundRect,0.200000X-0.450000X0.200000X-0.450000X-0.200000X0.450000X-0.200000X0.450000X0.200000X0*%
%TD*%
%TA.AperFunction,ComponentPad*%
%ADD12O,1.300000X0.800000*%
%TD*%
%TA.AperFunction,ComponentPad*%
%ADD13R,1.200000X1.200000*%
%TD*%
%TA.AperFunction,ComponentPad*%
%ADD14C,1.200000*%
%TD*%
%TA.AperFunction,ComponentPad*%
%ADD15RoundRect,0.200000X0.200000X0.450000X-0.200000X0.450000X-0.200000X-0.450000X0.200000X-0.450000X0*%
%TD*%
%TA.AperFunction,ComponentPad*%
%ADD16O,0.800000X1.300000*%
%TD*%
%TA.AperFunction,ComponentPad*%
%ADD17RoundRect,0.250000X0.725000X-0.600000X0.725000X0.600000X-0.725000X0.600000X-0.725000X-0.600000X0*%
%TD*%
%TA.AperFunction,ComponentPad*%
%ADD18O,1.950000X1.700000*%
%TD*%
%TA.AperFunction,ComponentPad*%
%ADD19R,1.700000X1.700000*%
%TD*%
%TA.AperFunction,ComponentPad*%
%ADD20O,1.700000X1.700000*%
%TD*%
%TA.AperFunction,ComponentPad*%
%ADD21RoundRect,0.250000X-0.625000X0.350000X-0.625000X-0.350000X0.625000X-0.350000X0.625000X0.350000X0*%
%TD*%
%TA.AperFunction,ComponentPad*%
%ADD22O,1.750000X1.200000*%
%TD*%
%TA.AperFunction,ViaPad*%
%ADD23C,0.800000*%
%TD*%
G04 APERTURE END LIST*
D10*
%TO.N,GND*%
%TO.C,SW4*%
X191546000Y-58715000D03*
X191546000Y-65215000D03*
%TO.N,Net-(R12-Pad2)*%
X187046000Y-58715000D03*
X187046000Y-65215000D03*
%TD*%
D11*
%TO.N,Net-(U4-Vo-)*%
%TO.C,LS1*%
X206314000Y-68081000D03*
D12*
%TO.N,Net-(U4-Vo+)*%
X206314000Y-69331000D03*
%TD*%
D13*
%TO.N,/Shake*%
%TO.C,SW2*%
X188976000Y-73874600D03*
D14*
%TO.N,+3V8*%
X188976000Y-72374600D03*
%TD*%
D10*
%TO.N,Net-(R13-Pad1)*%
%TO.C,SW3*%
X178816000Y-65163000D03*
X178816000Y-58663000D03*
%TO.N,+3V8*%
X183316000Y-65163000D03*
X183316000Y-58663000D03*
%TD*%
D15*
%TO.N,Net-(D5-K)*%
%TO.C,M1*%
X180574000Y-74422000D03*
D16*
%TO.N,GND*%
X179324000Y-74422000D03*
%TD*%
D17*
%TO.N,/LED*%
%TO.C,D1*%
X212139000Y-64730000D03*
D18*
%TO.N,+3V8*%
X212139000Y-62230000D03*
%TO.N,GND*%
X212139000Y-59730000D03*
%TD*%
D19*
%TO.N,Net-(R7-Pad1)*%
%TO.C,SW1*%
X151201000Y-71871000D03*
D20*
%TO.N,VDD*%
X148661000Y-71871000D03*
%TD*%
D21*
%TO.N,VDD*%
%TO.C,BT1*%
X144272000Y-70506000D03*
D22*
%TO.N,GND*%
X144272000Y-72506000D03*
%TD*%
D23*
%TO.N,/LED*%
X210058000Y-68072000D03*
X167894000Y-75362777D03*
%TO.N,GND*%
X186944000Y-67564000D03*
X158406617Y-71055500D03*
X162306000Y-60198000D03*
X147574000Y-74422000D03*
X217424000Y-67056000D03*
X173482000Y-61294500D03*
X160782000Y-74930000D03*
X204008210Y-65606500D03*
X193802000Y-66294000D03*
X176276000Y-58420000D03*
X183134000Y-74967500D03*
X205989701Y-71877701D03*
X170503636Y-58466424D03*
X147574000Y-58081500D03*
X150622000Y-69650500D03*
X158750000Y-60198000D03*
X186436000Y-72136000D03*
X151130000Y-59182000D03*
X165029361Y-57885034D03*
X174810321Y-72860500D03*
%TO.N,Net-(U2-PH1)*%
X215900000Y-70612000D03*
X161290000Y-60960000D03*
%TO.N,Net-(U2-PH0)*%
X209804000Y-70612000D03*
X163068000Y-60960000D03*
%TO.N,+3V8*%
X156718000Y-58674000D03*
X186944000Y-70358000D03*
X208026000Y-64008000D03*
X181864000Y-67564000D03*
X173698009Y-71902088D03*
X203962000Y-67310000D03*
X166116000Y-75184000D03*
X163322000Y-57404000D03*
X185166000Y-63246000D03*
X176276000Y-61722000D03*
X161798000Y-61976000D03*
%TO.N,/on_off_switch*%
X141176000Y-62230000D03*
X159512000Y-75221500D03*
X146304000Y-62230000D03*
%TO.N,/Motor*%
X161036000Y-73660000D03*
X175768000Y-73152000D03*
%TO.N,/Speaker*%
X166963844Y-74638500D03*
X194310000Y-74422000D03*
%TO.N,/Switch*%
X146558000Y-66040000D03*
X155448000Y-70612000D03*
%TO.N,Net-(U1-FB)*%
X153558800Y-71008800D03*
X151384000Y-68072000D03*
%TO.N,/boot0*%
X177546000Y-67056000D03*
X169672000Y-57912000D03*
%TO.N,/NRST*%
X160206500Y-64770000D03*
X190754000Y-71120000D03*
%TO.N,/Shake*%
X162560000Y-72666113D03*
X183134000Y-72644000D03*
%TO.N,/SWDIO*%
X185166000Y-61294500D03*
X208026000Y-58928000D03*
%TO.N,/SWCLK*%
X208280000Y-60706000D03*
X193294000Y-61976000D03*
%TO.N,VDD*%
X142494000Y-62484000D03*
%TD*%
%TA.AperFunction,Conductor*%
%TO.N,+3V8*%
G36*
X164077086Y-57677685D02*
G01*
X164122841Y-57730489D01*
X164133367Y-57794960D01*
X164123901Y-57885034D01*
X164143687Y-58073290D01*
X164143688Y-58073293D01*
X164202179Y-58253311D01*
X164202182Y-58253318D01*
X164296828Y-58417250D01*
X164341792Y-58467187D01*
X164423490Y-58557922D01*
X164576626Y-58669182D01*
X164576631Y-58669185D01*
X164749553Y-58746176D01*
X164749558Y-58746178D01*
X164934715Y-58785534D01*
X164934716Y-58785534D01*
X165124005Y-58785534D01*
X165124007Y-58785534D01*
X165309164Y-58746178D01*
X165482091Y-58669185D01*
X165635232Y-58557922D01*
X165761894Y-58417250D01*
X165856540Y-58253318D01*
X165915035Y-58073290D01*
X165934821Y-57885034D01*
X165925354Y-57794960D01*
X165937924Y-57726231D01*
X165985656Y-57675208D01*
X166048675Y-57658000D01*
X168655521Y-57658000D01*
X168722560Y-57677685D01*
X168768315Y-57730489D01*
X168778841Y-57794957D01*
X168766540Y-57912000D01*
X168786326Y-58100256D01*
X168786327Y-58100259D01*
X168844818Y-58280277D01*
X168844821Y-58280284D01*
X168939467Y-58444216D01*
X169066129Y-58584888D01*
X169219265Y-58696148D01*
X169219270Y-58696151D01*
X169392192Y-58773142D01*
X169392197Y-58773144D01*
X169577354Y-58812500D01*
X169592044Y-58812500D01*
X169659083Y-58832185D01*
X169699430Y-58874499D01*
X169771103Y-58998640D01*
X169875848Y-59114971D01*
X169897765Y-59139312D01*
X170050901Y-59250572D01*
X170050906Y-59250575D01*
X170223828Y-59327566D01*
X170223833Y-59327568D01*
X170408990Y-59366924D01*
X170408991Y-59366924D01*
X170598280Y-59366924D01*
X170598282Y-59366924D01*
X170783439Y-59327568D01*
X170956366Y-59250575D01*
X171109507Y-59139312D01*
X171236169Y-58998640D01*
X171330815Y-58834708D01*
X171389310Y-58654680D01*
X171409096Y-58466424D01*
X171389310Y-58278168D01*
X171330815Y-58098140D01*
X171236169Y-57934208D01*
X171173826Y-57864969D01*
X171143598Y-57801981D01*
X171152223Y-57732646D01*
X171196964Y-57678980D01*
X171263617Y-57658022D01*
X171265978Y-57658000D01*
X175471857Y-57658000D01*
X175538896Y-57677685D01*
X175584651Y-57730489D01*
X175594595Y-57799647D01*
X175565570Y-57863203D01*
X175564007Y-57864972D01*
X175543466Y-57887785D01*
X175448821Y-58051715D01*
X175448818Y-58051722D01*
X175390327Y-58231740D01*
X175390326Y-58231744D01*
X175370540Y-58420000D01*
X175390326Y-58608256D01*
X175390327Y-58608259D01*
X175448818Y-58788277D01*
X175448821Y-58788284D01*
X175543467Y-58952216D01*
X175633466Y-59052170D01*
X175670129Y-59092888D01*
X175823265Y-59204148D01*
X175823270Y-59204151D01*
X175996192Y-59281142D01*
X175996197Y-59281144D01*
X176181354Y-59320500D01*
X176181355Y-59320500D01*
X176370644Y-59320500D01*
X176370646Y-59320500D01*
X176555803Y-59281144D01*
X176728730Y-59204151D01*
X176881871Y-59092888D01*
X177008533Y-58952216D01*
X177095209Y-58802087D01*
X177145773Y-58753875D01*
X177214380Y-58740651D01*
X177279245Y-58766619D01*
X177319774Y-58823533D01*
X177326170Y-58853849D01*
X177330890Y-58910813D01*
X177330892Y-58910824D01*
X177391936Y-59151881D01*
X177491826Y-59379606D01*
X177627833Y-59587782D01*
X177627836Y-59587785D01*
X177796256Y-59770738D01*
X177992491Y-59923474D01*
X178085519Y-59973818D01*
X178210332Y-60041364D01*
X178211190Y-60041828D01*
X178377304Y-60098855D01*
X178444964Y-60122083D01*
X178446386Y-60122571D01*
X178691665Y-60163500D01*
X178940335Y-60163500D01*
X179185614Y-60122571D01*
X179420810Y-60041828D01*
X179639509Y-59923474D01*
X179835744Y-59770738D01*
X180004164Y-59587785D01*
X180140173Y-59379607D01*
X180240063Y-59151881D01*
X180301108Y-58910821D01*
X180321643Y-58663000D01*
X180306238Y-58477085D01*
X180301109Y-58415187D01*
X180301107Y-58415175D01*
X180240063Y-58174118D01*
X180140173Y-57946393D01*
X180077080Y-57849821D01*
X180056892Y-57782932D01*
X180076073Y-57715746D01*
X180128532Y-57669596D01*
X180180889Y-57658000D01*
X181951708Y-57658000D01*
X182018747Y-57677685D01*
X182064502Y-57730489D01*
X182074446Y-57799647D01*
X182055517Y-57849821D01*
X181992267Y-57946632D01*
X181892412Y-58174282D01*
X181831387Y-58415261D01*
X181831385Y-58415270D01*
X181810859Y-58662994D01*
X181810859Y-58663005D01*
X181831385Y-58910729D01*
X181831387Y-58910738D01*
X181892412Y-59151717D01*
X181992266Y-59379364D01*
X182092564Y-59532882D01*
X182667482Y-58957964D01*
X182728805Y-58924479D01*
X182798496Y-58929463D01*
X182854430Y-58971334D01*
X182857514Y-58976249D01*
X182857549Y-58976225D01*
X182862441Y-58983156D01*
X182926897Y-59052171D01*
X182965638Y-59093652D01*
X183000698Y-59114973D01*
X183047749Y-59166623D01*
X183059407Y-59235513D01*
X183031970Y-59299770D01*
X183023950Y-59308601D01*
X182445942Y-59886609D01*
X182492768Y-59923055D01*
X182492770Y-59923056D01*
X182711385Y-60041364D01*
X182711396Y-60041369D01*
X182946506Y-60122083D01*
X183191707Y-60163000D01*
X183440293Y-60163000D01*
X183685493Y-60122083D01*
X183920603Y-60041369D01*
X183920614Y-60041364D01*
X184139228Y-59923057D01*
X184139231Y-59923055D01*
X184186056Y-59886609D01*
X183609165Y-59309718D01*
X183575680Y-59248395D01*
X183580664Y-59178703D01*
X183618588Y-59125853D01*
X183721739Y-59041934D01*
X183772052Y-58970655D01*
X183826793Y-58927239D01*
X183896318Y-58920310D01*
X183958553Y-58952068D01*
X183961037Y-58954484D01*
X184539434Y-59532882D01*
X184639731Y-59379369D01*
X184739587Y-59151717D01*
X184800612Y-58910738D01*
X184800614Y-58910729D01*
X184821141Y-58663005D01*
X184821141Y-58662994D01*
X184800614Y-58415270D01*
X184800612Y-58415261D01*
X184739587Y-58174282D01*
X184639732Y-57946632D01*
X184576483Y-57849821D01*
X184556295Y-57782931D01*
X184575476Y-57715746D01*
X184627935Y-57669596D01*
X184680292Y-57658000D01*
X185715084Y-57658000D01*
X185782123Y-57677685D01*
X185827878Y-57730489D01*
X185837822Y-57799647D01*
X185818893Y-57849821D01*
X185721826Y-57998393D01*
X185621936Y-58226118D01*
X185560892Y-58467175D01*
X185560890Y-58467187D01*
X185540357Y-58714994D01*
X185540357Y-58715005D01*
X185560890Y-58962812D01*
X185560892Y-58962824D01*
X185621936Y-59203881D01*
X185721826Y-59431606D01*
X185857833Y-59639782D01*
X185857836Y-59639785D01*
X186026256Y-59822738D01*
X186222491Y-59975474D01*
X186222493Y-59975475D01*
X186362989Y-60051508D01*
X186441190Y-60093828D01*
X186642681Y-60163000D01*
X186674093Y-60173784D01*
X186676386Y-60174571D01*
X186921665Y-60215500D01*
X187170335Y-60215500D01*
X187415614Y-60174571D01*
X187650810Y-60093828D01*
X187869509Y-59975474D01*
X188065744Y-59822738D01*
X188234164Y-59639785D01*
X188370173Y-59431607D01*
X188470063Y-59203881D01*
X188531108Y-58962821D01*
X188531511Y-58957964D01*
X188540138Y-58853849D01*
X188551643Y-58715000D01*
X188531108Y-58467179D01*
X188516017Y-58407585D01*
X188470063Y-58226118D01*
X188370173Y-57998393D01*
X188273107Y-57849821D01*
X188252919Y-57782932D01*
X188272100Y-57715746D01*
X188324559Y-57669596D01*
X188376916Y-57658000D01*
X190215084Y-57658000D01*
X190282123Y-57677685D01*
X190327878Y-57730489D01*
X190337822Y-57799647D01*
X190318893Y-57849821D01*
X190221826Y-57998393D01*
X190121936Y-58226118D01*
X190060892Y-58467175D01*
X190060890Y-58467187D01*
X190040357Y-58714994D01*
X190040357Y-58715005D01*
X190060890Y-58962812D01*
X190060892Y-58962824D01*
X190121936Y-59203881D01*
X190221826Y-59431606D01*
X190357833Y-59639782D01*
X190357836Y-59639785D01*
X190526256Y-59822738D01*
X190722491Y-59975474D01*
X190722493Y-59975475D01*
X190862989Y-60051508D01*
X190941190Y-60093828D01*
X191142681Y-60163000D01*
X191174093Y-60173784D01*
X191176386Y-60174571D01*
X191421665Y-60215500D01*
X191670335Y-60215500D01*
X191915614Y-60174571D01*
X192150810Y-60093828D01*
X192369509Y-59975474D01*
X192565744Y-59822738D01*
X192734164Y-59639785D01*
X192870173Y-59431607D01*
X192970063Y-59203881D01*
X193031108Y-58962821D01*
X193031511Y-58957964D01*
X193033994Y-58928000D01*
X207120540Y-58928000D01*
X207140326Y-59116256D01*
X207140327Y-59116259D01*
X207198818Y-59296277D01*
X207198821Y-59296284D01*
X207293467Y-59460216D01*
X207351899Y-59525111D01*
X207420129Y-59600888D01*
X207573265Y-59712148D01*
X207573266Y-59712148D01*
X207573270Y-59712151D01*
X207704857Y-59770738D01*
X207713511Y-59774591D01*
X207766748Y-59819841D01*
X207787069Y-59886690D01*
X207768024Y-59953914D01*
X207735961Y-59988187D01*
X207674131Y-60033109D01*
X207674129Y-60033111D01*
X207547466Y-60173785D01*
X207452821Y-60337715D01*
X207452818Y-60337722D01*
X207396728Y-60510351D01*
X207394326Y-60517744D01*
X207374540Y-60706000D01*
X207394326Y-60894256D01*
X207394327Y-60894259D01*
X207452818Y-61074277D01*
X207452821Y-61074284D01*
X207547467Y-61238216D01*
X207605899Y-61303111D01*
X207674129Y-61378888D01*
X207827265Y-61490148D01*
X207827270Y-61490151D01*
X208000192Y-61567142D01*
X208000197Y-61567144D01*
X208185354Y-61606500D01*
X208185355Y-61606500D01*
X208374644Y-61606500D01*
X208374646Y-61606500D01*
X208559803Y-61567144D01*
X208732730Y-61490151D01*
X208885871Y-61378888D01*
X209012533Y-61238216D01*
X209107179Y-61074284D01*
X209165674Y-60894256D01*
X209185460Y-60706000D01*
X209165674Y-60517744D01*
X209107179Y-60337716D01*
X209012533Y-60173784D01*
X208885871Y-60033112D01*
X208853708Y-60009744D01*
X208732734Y-59921851D01*
X208732729Y-59921848D01*
X208592488Y-59859408D01*
X208539251Y-59814158D01*
X208518930Y-59747308D01*
X208523834Y-59730000D01*
X210658341Y-59730000D01*
X210678936Y-59965403D01*
X210678938Y-59965413D01*
X210740094Y-60193655D01*
X210740096Y-60193659D01*
X210740097Y-60193663D01*
X210750280Y-60215500D01*
X210839964Y-60407828D01*
X210839965Y-60407830D01*
X210975505Y-60601402D01*
X211142597Y-60768494D01*
X211300031Y-60878730D01*
X211343656Y-60933307D01*
X211350850Y-61002805D01*
X211319327Y-61065160D01*
X211300032Y-61081880D01*
X211142922Y-61191890D01*
X211142920Y-61191891D01*
X210975894Y-61358917D01*
X210840399Y-61552421D01*
X210740570Y-61766507D01*
X210740567Y-61766513D01*
X210683364Y-61979999D01*
X210683364Y-61980000D01*
X211551708Y-61980000D01*
X211618747Y-61999685D01*
X211664502Y-62052489D01*
X211674446Y-62121647D01*
X211670686Y-62138933D01*
X211664000Y-62161705D01*
X211664000Y-62298294D01*
X211670686Y-62321067D01*
X211670684Y-62390937D01*
X211632909Y-62449714D01*
X211569353Y-62478738D01*
X211551708Y-62480000D01*
X210683364Y-62480000D01*
X210740567Y-62693486D01*
X210740570Y-62693492D01*
X210840399Y-62907577D01*
X210840400Y-62907579D01*
X210975886Y-63101073D01*
X211123143Y-63248331D01*
X211156627Y-63309654D01*
X211151643Y-63379346D01*
X211109771Y-63435279D01*
X211100558Y-63441550D01*
X210945347Y-63537285D01*
X210945343Y-63537288D01*
X210821289Y-63661342D01*
X210729187Y-63810663D01*
X210729185Y-63810666D01*
X210729186Y-63810666D01*
X210674001Y-63977203D01*
X210674001Y-63977204D01*
X210674000Y-63977204D01*
X210663500Y-64079983D01*
X210663500Y-65380001D01*
X210663501Y-65380018D01*
X210674000Y-65482796D01*
X210674001Y-65482799D01*
X210693596Y-65541932D01*
X210729186Y-65649334D01*
X210821288Y-65798656D01*
X210945344Y-65922712D01*
X211094666Y-66014814D01*
X211261203Y-66069999D01*
X211363991Y-66080500D01*
X212914008Y-66080499D01*
X213016797Y-66069999D01*
X213183334Y-66014814D01*
X213332656Y-65922712D01*
X213456712Y-65798656D01*
X213548814Y-65649334D01*
X213603999Y-65482797D01*
X213614500Y-65380009D01*
X213614499Y-64079992D01*
X213603999Y-63977203D01*
X213548814Y-63810666D01*
X213456712Y-63661344D01*
X213332656Y-63537288D01*
X213183334Y-63445186D01*
X213177441Y-63441551D01*
X213130717Y-63389603D01*
X213119494Y-63320640D01*
X213147338Y-63256558D01*
X213154857Y-63248331D01*
X213302105Y-63101082D01*
X213437600Y-62907578D01*
X213537429Y-62693492D01*
X213537432Y-62693486D01*
X213594636Y-62480000D01*
X212726292Y-62480000D01*
X212659253Y-62460315D01*
X212613498Y-62407511D01*
X212603554Y-62338353D01*
X212607314Y-62321067D01*
X212614000Y-62298294D01*
X212614000Y-62161705D01*
X212607314Y-62138933D01*
X212607316Y-62069063D01*
X212645091Y-62010286D01*
X212708647Y-61981262D01*
X212726292Y-61980000D01*
X213594636Y-61980000D01*
X213594635Y-61979999D01*
X213537432Y-61766513D01*
X213537429Y-61766507D01*
X213437600Y-61552422D01*
X213437599Y-61552420D01*
X213302113Y-61358926D01*
X213302108Y-61358920D01*
X213135079Y-61191891D01*
X213135073Y-61191886D01*
X212977967Y-61081880D01*
X212934342Y-61027303D01*
X212927148Y-60957805D01*
X212958671Y-60895450D01*
X212977960Y-60878735D01*
X213135401Y-60768495D01*
X213302495Y-60601401D01*
X213438035Y-60407830D01*
X213537903Y-60193663D01*
X213599063Y-59965408D01*
X213619659Y-59730000D01*
X213599063Y-59494592D01*
X213545925Y-59296277D01*
X213537905Y-59266344D01*
X213537904Y-59266343D01*
X213537903Y-59266337D01*
X213438035Y-59052171D01*
X213438034Y-59052169D01*
X213302494Y-58858597D01*
X213135402Y-58691505D01*
X212941830Y-58555965D01*
X212941828Y-58555964D01*
X212834745Y-58506031D01*
X212727663Y-58456097D01*
X212727659Y-58456096D01*
X212727655Y-58456094D01*
X212499413Y-58394938D01*
X212499403Y-58394936D01*
X212322966Y-58379500D01*
X211955034Y-58379500D01*
X211778596Y-58394936D01*
X211778586Y-58394938D01*
X211550344Y-58456094D01*
X211550335Y-58456098D01*
X211336171Y-58555964D01*
X211336169Y-58555965D01*
X211142597Y-58691505D01*
X210975506Y-58858597D01*
X210975501Y-58858604D01*
X210839967Y-59052165D01*
X210839965Y-59052169D01*
X210740098Y-59266335D01*
X210740094Y-59266344D01*
X210678938Y-59494586D01*
X210678936Y-59494596D01*
X210658341Y-59729999D01*
X210658341Y-59730000D01*
X208523834Y-59730000D01*
X208537976Y-59680085D01*
X208570034Y-59645814D01*
X208631871Y-59600888D01*
X208758533Y-59460216D01*
X208853179Y-59296284D01*
X208911674Y-59116256D01*
X208931460Y-58928000D01*
X208911674Y-58739744D01*
X208853179Y-58559716D01*
X208758533Y-58395784D01*
X208631871Y-58255112D01*
X208629402Y-58253318D01*
X208478734Y-58143851D01*
X208478729Y-58143848D01*
X208305807Y-58066857D01*
X208305802Y-58066855D01*
X208160000Y-58035865D01*
X208120646Y-58027500D01*
X207931354Y-58027500D01*
X207898897Y-58034398D01*
X207746197Y-58066855D01*
X207746192Y-58066857D01*
X207573270Y-58143848D01*
X207573265Y-58143851D01*
X207420129Y-58255111D01*
X207293466Y-58395785D01*
X207198821Y-58559715D01*
X207198818Y-58559722D01*
X207148364Y-58715005D01*
X207140326Y-58739744D01*
X207120540Y-58928000D01*
X193033994Y-58928000D01*
X193040138Y-58853849D01*
X193051643Y-58715000D01*
X193031108Y-58467179D01*
X193016017Y-58407585D01*
X192970063Y-58226118D01*
X192870173Y-57998393D01*
X192773107Y-57849821D01*
X192752919Y-57782932D01*
X192772100Y-57715746D01*
X192824559Y-57669596D01*
X192876916Y-57658000D01*
X220094000Y-57658000D01*
X220161039Y-57677685D01*
X220206794Y-57730489D01*
X220218000Y-57782000D01*
X220218000Y-75567516D01*
X220198315Y-75634555D01*
X220145511Y-75680310D01*
X220093518Y-75691515D01*
X184051058Y-75551272D01*
X183984095Y-75531327D01*
X183938546Y-75478345D01*
X183928872Y-75409149D01*
X183944152Y-75365275D01*
X183961179Y-75335784D01*
X184019674Y-75155756D01*
X184039460Y-74967500D01*
X184019674Y-74779244D01*
X183961179Y-74599216D01*
X183866533Y-74435284D01*
X183739871Y-74294612D01*
X183706293Y-74270216D01*
X183586734Y-74183351D01*
X183586729Y-74183348D01*
X183413807Y-74106357D01*
X183413802Y-74106355D01*
X183268000Y-74075365D01*
X183228646Y-74067000D01*
X183039354Y-74067000D01*
X183006897Y-74073898D01*
X182854197Y-74106355D01*
X182854192Y-74106357D01*
X182681270Y-74183348D01*
X182681265Y-74183351D01*
X182528129Y-74294611D01*
X182401466Y-74435285D01*
X182306821Y-74599215D01*
X182306818Y-74599222D01*
X182248327Y-74779240D01*
X182248326Y-74779244D01*
X182228540Y-74967500D01*
X182248326Y-75155756D01*
X182248327Y-75155759D01*
X182306818Y-75335777D01*
X182306822Y-75335786D01*
X182319715Y-75358118D01*
X182336186Y-75426019D01*
X182313333Y-75492045D01*
X182258411Y-75535235D01*
X182211845Y-75544115D01*
X181394601Y-75540935D01*
X181327638Y-75520990D01*
X181282089Y-75468008D01*
X181272415Y-75398812D01*
X181301687Y-75335369D01*
X181307388Y-75329268D01*
X181329472Y-75307185D01*
X181417478Y-75161606D01*
X181468086Y-74999196D01*
X181474500Y-74928616D01*
X181474500Y-73915384D01*
X181468086Y-73844804D01*
X181417478Y-73682394D01*
X181329472Y-73536815D01*
X181329470Y-73536813D01*
X181329469Y-73536811D01*
X181209188Y-73416530D01*
X181205666Y-73414401D01*
X181063606Y-73328522D01*
X180901196Y-73277914D01*
X180901194Y-73277913D01*
X180901192Y-73277913D01*
X180851778Y-73273423D01*
X180830616Y-73271500D01*
X180317384Y-73271500D01*
X180298145Y-73273248D01*
X180246807Y-73277913D01*
X180084391Y-73328523D01*
X179942330Y-73414401D01*
X179874775Y-73432237D01*
X179808302Y-73410719D01*
X179805297Y-73408603D01*
X179776733Y-73387851D01*
X179776729Y-73387848D01*
X179603807Y-73310857D01*
X179603802Y-73310855D01*
X179448817Y-73277913D01*
X179418646Y-73271500D01*
X179229354Y-73271500D01*
X179199183Y-73277913D01*
X179044197Y-73310855D01*
X179044192Y-73310857D01*
X178871270Y-73387848D01*
X178871265Y-73387851D01*
X178718129Y-73499111D01*
X178591466Y-73639785D01*
X178496821Y-73803715D01*
X178496818Y-73803722D01*
X178444217Y-73965612D01*
X178438326Y-73983744D01*
X178423500Y-74124808D01*
X178423500Y-74719192D01*
X178438326Y-74860256D01*
X178438327Y-74860259D01*
X178496818Y-75040277D01*
X178496821Y-75040284D01*
X178591467Y-75204216D01*
X178697772Y-75322279D01*
X178698523Y-75323113D01*
X178728753Y-75386104D01*
X178720128Y-75455439D01*
X178675387Y-75509105D01*
X178608734Y-75530063D01*
X178605891Y-75530084D01*
X168922978Y-75492408D01*
X168856015Y-75472463D01*
X168810466Y-75419481D01*
X168799460Y-75368409D01*
X168799460Y-75362779D01*
X168798970Y-75358118D01*
X168779674Y-75174521D01*
X168721179Y-74994493D01*
X168626533Y-74830561D01*
X168499871Y-74689889D01*
X168499040Y-74689285D01*
X168346734Y-74578628D01*
X168346729Y-74578625D01*
X168173807Y-74501634D01*
X168173802Y-74501632D01*
X168020407Y-74469028D01*
X167988646Y-74462277D01*
X167988645Y-74462277D01*
X167943519Y-74462277D01*
X167876480Y-74442592D01*
X167830725Y-74389788D01*
X167825588Y-74376595D01*
X167791025Y-74270222D01*
X167791024Y-74270221D01*
X167791023Y-74270216D01*
X167696377Y-74106284D01*
X167569715Y-73965612D01*
X167569714Y-73965611D01*
X167416578Y-73854351D01*
X167416573Y-73854348D01*
X167243651Y-73777357D01*
X167243646Y-73777355D01*
X167097844Y-73746365D01*
X167058490Y-73738000D01*
X166869198Y-73738000D01*
X166858533Y-73740267D01*
X166684041Y-73777355D01*
X166684036Y-73777357D01*
X166511114Y-73854348D01*
X166511109Y-73854351D01*
X166357973Y-73965611D01*
X166231310Y-74106285D01*
X166136665Y-74270215D01*
X166136662Y-74270222D01*
X166082360Y-74437348D01*
X166078170Y-74450244D01*
X166058384Y-74638500D01*
X166078170Y-74826756D01*
X166078171Y-74826759D01*
X166136662Y-75006777D01*
X166136665Y-75006784D01*
X166231311Y-75170716D01*
X166307109Y-75254898D01*
X166325180Y-75274968D01*
X166355410Y-75337959D01*
X166346785Y-75407295D01*
X166302043Y-75460960D01*
X166235391Y-75481918D01*
X166232548Y-75481939D01*
X161725393Y-75464402D01*
X161658430Y-75444457D01*
X161612881Y-75391475D01*
X161603207Y-75322279D01*
X161607944Y-75302085D01*
X161616755Y-75274968D01*
X161667674Y-75118256D01*
X161687460Y-74930000D01*
X161667674Y-74741744D01*
X161609179Y-74561716D01*
X161581591Y-74513933D01*
X161565119Y-74446033D01*
X161587972Y-74380007D01*
X161616094Y-74351615D01*
X161641871Y-74332888D01*
X161768533Y-74192216D01*
X161863179Y-74028284D01*
X161921674Y-73848256D01*
X161941460Y-73660000D01*
X161932643Y-73576114D01*
X161945212Y-73507387D01*
X161992944Y-73456363D01*
X162060685Y-73439245D01*
X162106401Y-73449876D01*
X162107266Y-73450261D01*
X162107270Y-73450264D01*
X162280197Y-73527257D01*
X162465354Y-73566613D01*
X162465355Y-73566613D01*
X162654644Y-73566613D01*
X162654646Y-73566613D01*
X162839803Y-73527257D01*
X163012730Y-73450264D01*
X163165871Y-73339001D01*
X163292533Y-73198329D01*
X163387179Y-73034397D01*
X163443682Y-72860500D01*
X173904861Y-72860500D01*
X173924647Y-73048756D01*
X173924648Y-73048759D01*
X173983139Y-73228777D01*
X173983142Y-73228784D01*
X174077788Y-73392716D01*
X174173587Y-73499111D01*
X174204450Y-73533388D01*
X174357586Y-73644648D01*
X174357591Y-73644651D01*
X174530513Y-73721642D01*
X174530518Y-73721644D01*
X174715675Y-73761000D01*
X174715676Y-73761000D01*
X174904966Y-73761000D01*
X174904967Y-73761000D01*
X175002505Y-73740267D01*
X175072173Y-73745583D01*
X175120436Y-73778584D01*
X175162128Y-73824887D01*
X175162135Y-73824893D01*
X175315265Y-73936148D01*
X175315270Y-73936151D01*
X175488192Y-74013142D01*
X175488197Y-74013144D01*
X175673354Y-74052500D01*
X175673355Y-74052500D01*
X175862644Y-74052500D01*
X175862646Y-74052500D01*
X176047803Y-74013144D01*
X176220730Y-73936151D01*
X176373871Y-73824888D01*
X176500533Y-73684216D01*
X176595179Y-73520284D01*
X176653674Y-73340256D01*
X176673460Y-73152000D01*
X176653674Y-72963744D01*
X176595179Y-72783716D01*
X176514514Y-72644000D01*
X182228540Y-72644000D01*
X182248326Y-72832256D01*
X182248327Y-72832259D01*
X182306818Y-73012277D01*
X182306821Y-73012284D01*
X182401467Y-73176216D01*
X182522697Y-73310855D01*
X182528129Y-73316888D01*
X182681265Y-73428148D01*
X182681270Y-73428151D01*
X182854192Y-73505142D01*
X182854197Y-73505144D01*
X183039354Y-73544500D01*
X183039355Y-73544500D01*
X183228644Y-73544500D01*
X183228646Y-73544500D01*
X183413803Y-73505144D01*
X183586730Y-73428151D01*
X183739871Y-73316888D01*
X183866533Y-73176216D01*
X183961179Y-73012284D01*
X184019674Y-72832256D01*
X184039460Y-72644000D01*
X184019674Y-72455744D01*
X183961179Y-72275716D01*
X183880514Y-72136000D01*
X185530540Y-72136000D01*
X185550326Y-72324256D01*
X185550327Y-72324259D01*
X185608818Y-72504277D01*
X185608821Y-72504284D01*
X185703467Y-72668216D01*
X185821095Y-72798855D01*
X185830129Y-72808888D01*
X185983265Y-72920148D01*
X185983270Y-72920151D01*
X186156192Y-72997142D01*
X186156197Y-72997144D01*
X186341354Y-73036500D01*
X186341355Y-73036500D01*
X186530644Y-73036500D01*
X186530646Y-73036500D01*
X186715803Y-72997144D01*
X186888730Y-72920151D01*
X187041871Y-72808888D01*
X187168533Y-72668216D01*
X187263179Y-72504284D01*
X187305316Y-72374600D01*
X187871287Y-72374600D01*
X187890096Y-72577589D01*
X187890097Y-72577591D01*
X187945884Y-72773663D01*
X187945890Y-72773678D01*
X187983688Y-72849585D01*
X187995949Y-72918370D01*
X187971955Y-72979168D01*
X187932204Y-73032268D01*
X187932202Y-73032271D01*
X187881908Y-73167117D01*
X187878553Y-73198327D01*
X187875501Y-73226723D01*
X187875500Y-73226735D01*
X187875500Y-74522470D01*
X187875501Y-74522476D01*
X187881908Y-74582083D01*
X187932202Y-74716928D01*
X187932206Y-74716935D01*
X188018452Y-74832144D01*
X188018455Y-74832147D01*
X188133664Y-74918393D01*
X188133671Y-74918397D01*
X188268517Y-74968691D01*
X188268516Y-74968691D01*
X188275444Y-74969435D01*
X188328127Y-74975100D01*
X189623872Y-74975099D01*
X189683483Y-74968691D01*
X189818331Y-74918396D01*
X189933546Y-74832146D01*
X190019796Y-74716931D01*
X190070091Y-74582083D01*
X190076500Y-74522473D01*
X190076500Y-74422000D01*
X193404540Y-74422000D01*
X193424326Y-74610256D01*
X193424327Y-74610259D01*
X193482818Y-74790277D01*
X193482821Y-74790284D01*
X193577467Y-74954216D01*
X193704128Y-75094888D01*
X193704129Y-75094888D01*
X193857265Y-75206148D01*
X193857270Y-75206151D01*
X194030192Y-75283142D01*
X194030197Y-75283144D01*
X194215354Y-75322500D01*
X194215355Y-75322500D01*
X194404644Y-75322500D01*
X194404646Y-75322500D01*
X194589803Y-75283144D01*
X194762730Y-75206151D01*
X194915871Y-75094888D01*
X195042533Y-74954216D01*
X195137179Y-74790284D01*
X195195674Y-74610256D01*
X195215460Y-74422000D01*
X195195674Y-74233744D01*
X195137179Y-74053716D01*
X195042533Y-73889784D01*
X194915871Y-73749112D01*
X194900577Y-73738000D01*
X194762734Y-73637851D01*
X194762729Y-73637848D01*
X194589807Y-73560857D01*
X194589802Y-73560855D01*
X194444000Y-73529865D01*
X194404646Y-73521500D01*
X194215354Y-73521500D01*
X194188279Y-73527255D01*
X194030197Y-73560855D01*
X194030192Y-73560857D01*
X193857270Y-73637848D01*
X193857265Y-73637851D01*
X193704129Y-73749111D01*
X193577466Y-73889785D01*
X193482821Y-74053715D01*
X193482818Y-74053722D01*
X193424327Y-74233740D01*
X193424326Y-74233744D01*
X193404540Y-74422000D01*
X190076500Y-74422000D01*
X190076499Y-73226728D01*
X190070091Y-73167117D01*
X190025946Y-73048759D01*
X190019797Y-73032271D01*
X190019795Y-73032268D01*
X189980044Y-72979167D01*
X189955627Y-72913703D01*
X189968311Y-72849583D01*
X190006114Y-72773664D01*
X190006115Y-72773663D01*
X190061902Y-72577591D01*
X190061903Y-72577589D01*
X190080713Y-72374600D01*
X190080713Y-72374599D01*
X190061903Y-72171610D01*
X190061902Y-72171607D01*
X190006115Y-71975535D01*
X190004093Y-71970314D01*
X189998230Y-71900691D01*
X190030939Y-71838950D01*
X190091835Y-71804695D01*
X190161584Y-71808800D01*
X190192604Y-71825201D01*
X190301265Y-71904148D01*
X190301270Y-71904151D01*
X190474192Y-71981142D01*
X190474197Y-71981144D01*
X190659354Y-72020500D01*
X190659355Y-72020500D01*
X190848644Y-72020500D01*
X190848646Y-72020500D01*
X191033803Y-71981144D01*
X191206730Y-71904151D01*
X191243135Y-71877701D01*
X205084241Y-71877701D01*
X205104027Y-72065957D01*
X205104028Y-72065960D01*
X205162519Y-72245978D01*
X205162522Y-72245985D01*
X205257168Y-72409917D01*
X205342137Y-72504284D01*
X205383830Y-72550589D01*
X205536966Y-72661849D01*
X205536971Y-72661852D01*
X205709893Y-72738843D01*
X205709898Y-72738845D01*
X205895055Y-72778201D01*
X205895056Y-72778201D01*
X206084345Y-72778201D01*
X206084347Y-72778201D01*
X206269504Y-72738845D01*
X206442431Y-72661852D01*
X206595572Y-72550589D01*
X206722234Y-72409917D01*
X206816880Y-72245985D01*
X206875375Y-72065957D01*
X206895161Y-71877701D01*
X206875375Y-71689445D01*
X206816880Y-71509417D01*
X206722234Y-71345485D01*
X206595572Y-71204813D01*
X206595571Y-71204812D01*
X206442435Y-71093552D01*
X206442430Y-71093549D01*
X206269508Y-71016558D01*
X206269503Y-71016556D01*
X206098851Y-70980284D01*
X206084347Y-70977201D01*
X205895055Y-70977201D01*
X205880551Y-70980284D01*
X205709898Y-71016556D01*
X205709893Y-71016558D01*
X205536971Y-71093549D01*
X205536966Y-71093552D01*
X205383830Y-71204812D01*
X205257167Y-71345486D01*
X205162522Y-71509416D01*
X205162519Y-71509423D01*
X205110237Y-71670332D01*
X205104027Y-71689445D01*
X205084241Y-71877701D01*
X191243135Y-71877701D01*
X191359871Y-71792888D01*
X191486533Y-71652216D01*
X191581179Y-71488284D01*
X191639674Y-71308256D01*
X191659460Y-71120000D01*
X191639674Y-70931744D01*
X191581179Y-70751716D01*
X191500514Y-70612000D01*
X208898540Y-70612000D01*
X208918326Y-70800256D01*
X208918327Y-70800259D01*
X208976818Y-70980277D01*
X208976821Y-70980284D01*
X209071467Y-71144216D01*
X209161096Y-71243759D01*
X209198129Y-71284888D01*
X209351265Y-71396148D01*
X209351270Y-71396151D01*
X209524192Y-71473142D01*
X209524197Y-71473144D01*
X209709354Y-71512500D01*
X209709355Y-71512500D01*
X209898644Y-71512500D01*
X209898646Y-71512500D01*
X210083803Y-71473144D01*
X210256730Y-71396151D01*
X210409871Y-71284888D01*
X210536533Y-71144216D01*
X210631179Y-70980284D01*
X210689674Y-70800256D01*
X210709460Y-70612000D01*
X214994540Y-70612000D01*
X215014326Y-70800256D01*
X215014327Y-70800259D01*
X215072818Y-70980277D01*
X215072821Y-70980284D01*
X215167467Y-71144216D01*
X215257096Y-71243759D01*
X215294129Y-71284888D01*
X215447265Y-71396148D01*
X215447270Y-71396151D01*
X215620192Y-71473142D01*
X215620197Y-71473144D01*
X215805354Y-71512500D01*
X215805355Y-71512500D01*
X215994644Y-71512500D01*
X215994646Y-71512500D01*
X216179803Y-71473144D01*
X216352730Y-71396151D01*
X216505871Y-71284888D01*
X216632533Y-71144216D01*
X216727179Y-70980284D01*
X216785674Y-70800256D01*
X216805460Y-70612000D01*
X216785674Y-70423744D01*
X216727179Y-70243716D01*
X216632533Y-70079784D01*
X216505871Y-69939112D01*
X216502787Y-69936871D01*
X216352734Y-69827851D01*
X216352729Y-69827848D01*
X216179807Y-69750857D01*
X216179802Y-69750855D01*
X216034000Y-69719865D01*
X215994646Y-69711500D01*
X215805354Y-69711500D01*
X215772897Y-69718398D01*
X215620197Y-69750855D01*
X215620192Y-69750857D01*
X215447270Y-69827848D01*
X215447265Y-69827851D01*
X215294129Y-69939111D01*
X215167466Y-70079785D01*
X215072821Y-70243715D01*
X215072818Y-70243722D01*
X215014327Y-70423740D01*
X215014326Y-70423744D01*
X214994540Y-70612000D01*
X210709460Y-70612000D01*
X210689674Y-70423744D01*
X210631179Y-70243716D01*
X210536533Y-70079784D01*
X210409871Y-69939112D01*
X210406787Y-69936871D01*
X210256734Y-69827851D01*
X210256729Y-69827848D01*
X210083807Y-69750857D01*
X210083802Y-69750855D01*
X209938000Y-69719865D01*
X209898646Y-69711500D01*
X209709354Y-69711500D01*
X209676897Y-69718398D01*
X209524197Y-69750855D01*
X209524192Y-69750857D01*
X209351270Y-69827848D01*
X209351265Y-69827851D01*
X209198129Y-69939111D01*
X209071466Y-70079785D01*
X208976821Y-70243715D01*
X208976818Y-70243722D01*
X208918327Y-70423740D01*
X208918326Y-70423744D01*
X208898540Y-70612000D01*
X191500514Y-70612000D01*
X191486533Y-70587784D01*
X191359871Y-70447112D01*
X191327708Y-70423744D01*
X191206734Y-70335851D01*
X191206729Y-70335848D01*
X191033807Y-70258857D01*
X191033802Y-70258855D01*
X190888000Y-70227865D01*
X190848646Y-70219500D01*
X190659354Y-70219500D01*
X190626897Y-70226398D01*
X190474197Y-70258855D01*
X190474192Y-70258857D01*
X190301270Y-70335848D01*
X190301265Y-70335851D01*
X190148129Y-70447111D01*
X190021466Y-70587785D01*
X189926821Y-70751715D01*
X189926818Y-70751722D01*
X189889283Y-70867244D01*
X189868326Y-70931744D01*
X189848540Y-71120000D01*
X189868326Y-71308256D01*
X189868327Y-71308259D01*
X189926818Y-71488277D01*
X189926820Y-71488281D01*
X189926821Y-71488284D01*
X189969662Y-71562487D01*
X189992724Y-71602432D01*
X190009196Y-71670332D01*
X189986343Y-71736359D01*
X189931421Y-71779549D01*
X189923332Y-71780818D01*
X189439119Y-72265032D01*
X189377796Y-72298517D01*
X189308104Y-72293533D01*
X189252171Y-72251661D01*
X189240440Y-72232628D01*
X189219552Y-72190678D01*
X189136666Y-72115116D01*
X189130511Y-72112731D01*
X189075110Y-72070161D01*
X189051518Y-72004395D01*
X189067228Y-71936314D01*
X189087623Y-71909424D01*
X189556688Y-71440358D01*
X189556687Y-71440357D01*
X189468418Y-71385704D01*
X189468411Y-71385700D01*
X189278321Y-71312060D01*
X189077928Y-71274600D01*
X188874072Y-71274600D01*
X188673678Y-71312060D01*
X188483588Y-71385700D01*
X188483584Y-71385702D01*
X188395310Y-71440358D01*
X188865736Y-71910783D01*
X188899221Y-71972106D01*
X188894237Y-72041797D01*
X188852366Y-72097731D01*
X188843334Y-72103890D01*
X188770390Y-72149056D01*
X188695874Y-72247732D01*
X188692476Y-72245166D01*
X188660097Y-72280035D01*
X188592420Y-72297403D01*
X188526098Y-72275424D01*
X188509004Y-72261157D01*
X188038533Y-71790685D01*
X188036754Y-71793043D01*
X187945886Y-71975530D01*
X187945883Y-71975536D01*
X187890097Y-72171607D01*
X187890096Y-72171610D01*
X187871287Y-72374599D01*
X187871287Y-72374600D01*
X187305316Y-72374600D01*
X187321674Y-72324256D01*
X187341460Y-72136000D01*
X187321674Y-71947744D01*
X187263179Y-71767716D01*
X187168533Y-71603784D01*
X187041871Y-71463112D01*
X187041870Y-71463111D01*
X186888734Y-71351851D01*
X186888729Y-71351848D01*
X186715807Y-71274857D01*
X186715802Y-71274855D01*
X186569488Y-71243756D01*
X186530646Y-71235500D01*
X186341354Y-71235500D01*
X186308897Y-71242398D01*
X186156197Y-71274855D01*
X186156192Y-71274857D01*
X185983270Y-71351848D01*
X185983265Y-71351851D01*
X185830129Y-71463111D01*
X185703466Y-71603785D01*
X185608821Y-71767715D01*
X185608818Y-71767722D01*
X185560431Y-71916644D01*
X185550326Y-71947744D01*
X185530540Y-72136000D01*
X183880514Y-72136000D01*
X183866533Y-72111784D01*
X183739871Y-71971112D01*
X183724577Y-71960000D01*
X183586734Y-71859851D01*
X183586729Y-71859848D01*
X183413807Y-71782857D01*
X183413802Y-71782855D01*
X183268001Y-71751865D01*
X183228646Y-71743500D01*
X183039354Y-71743500D01*
X183006897Y-71750398D01*
X182854197Y-71782855D01*
X182854192Y-71782857D01*
X182681270Y-71859848D01*
X182681265Y-71859851D01*
X182528129Y-71971111D01*
X182401466Y-72111785D01*
X182306821Y-72275715D01*
X182306818Y-72275722D01*
X182263216Y-72409917D01*
X182248326Y-72455744D01*
X182228540Y-72644000D01*
X176514514Y-72644000D01*
X176500533Y-72619784D01*
X176373871Y-72479112D01*
X176372144Y-72477857D01*
X176220734Y-72367851D01*
X176220729Y-72367848D01*
X176047807Y-72290857D01*
X176047802Y-72290855D01*
X175902000Y-72259865D01*
X175862646Y-72251500D01*
X175673354Y-72251500D01*
X175575811Y-72272232D01*
X175506146Y-72266916D01*
X175457884Y-72233915D01*
X175416192Y-72187612D01*
X175416191Y-72187611D01*
X175263055Y-72076351D01*
X175263050Y-72076348D01*
X175090128Y-71999357D01*
X175090123Y-71999355D01*
X174944322Y-71968365D01*
X174904967Y-71960000D01*
X174715675Y-71960000D01*
X174683218Y-71966898D01*
X174530518Y-71999355D01*
X174530513Y-71999357D01*
X174357591Y-72076348D01*
X174357586Y-72076351D01*
X174204450Y-72187611D01*
X174077787Y-72328285D01*
X173983142Y-72492215D01*
X173983139Y-72492222D01*
X173924648Y-72672240D01*
X173924647Y-72672244D01*
X173904861Y-72860500D01*
X163443682Y-72860500D01*
X163445674Y-72854369D01*
X163465460Y-72666113D01*
X163445674Y-72477857D01*
X163387179Y-72297829D01*
X163292533Y-72133897D01*
X163165871Y-71993225D01*
X163149243Y-71981144D01*
X163012734Y-71881964D01*
X163012729Y-71881961D01*
X162839807Y-71804970D01*
X162839802Y-71804968D01*
X162694000Y-71773978D01*
X162654646Y-71765613D01*
X162465354Y-71765613D01*
X162432897Y-71772511D01*
X162280197Y-71804968D01*
X162280192Y-71804970D01*
X162107270Y-71881961D01*
X162107265Y-71881964D01*
X161954129Y-71993224D01*
X161827466Y-72133898D01*
X161732821Y-72297828D01*
X161732818Y-72297835D01*
X161674327Y-72477853D01*
X161674326Y-72477857D01*
X161670881Y-72510638D01*
X161654540Y-72666113D01*
X161663356Y-72749996D01*
X161650786Y-72818726D01*
X161603054Y-72869750D01*
X161535313Y-72886867D01*
X161489599Y-72876236D01*
X161315807Y-72798857D01*
X161315802Y-72798855D01*
X161170001Y-72767865D01*
X161130646Y-72759500D01*
X160941354Y-72759500D01*
X160908897Y-72766398D01*
X160756197Y-72798855D01*
X160756192Y-72798857D01*
X160583270Y-72875848D01*
X160583265Y-72875851D01*
X160430129Y-72987111D01*
X160303466Y-73127785D01*
X160208821Y-73291715D01*
X160208818Y-73291722D01*
X160150327Y-73471740D01*
X160150326Y-73471744D01*
X160140960Y-73560856D01*
X160132154Y-73644648D01*
X160130540Y-73660000D01*
X160150326Y-73848256D01*
X160150327Y-73848259D01*
X160208821Y-74028285D01*
X160236407Y-74076065D01*
X160252880Y-74143965D01*
X160230028Y-74209992D01*
X160201909Y-74238381D01*
X160176126Y-74257114D01*
X160176123Y-74257116D01*
X160060071Y-74386006D01*
X160000584Y-74422655D01*
X159930727Y-74421324D01*
X159917485Y-74416313D01*
X159791807Y-74360357D01*
X159791802Y-74360355D01*
X159646000Y-74329365D01*
X159606646Y-74321000D01*
X159417354Y-74321000D01*
X159384897Y-74327898D01*
X159232197Y-74360355D01*
X159232192Y-74360357D01*
X159059270Y-74437348D01*
X159059265Y-74437351D01*
X158906129Y-74548611D01*
X158779466Y-74689285D01*
X158684821Y-74853215D01*
X158684818Y-74853222D01*
X158634923Y-75006784D01*
X158626326Y-75033244D01*
X158611478Y-75174517D01*
X158608154Y-75206148D01*
X158606540Y-75221500D01*
X158616352Y-75314863D01*
X158603784Y-75383591D01*
X158556051Y-75434615D01*
X158492550Y-75451822D01*
X155063518Y-75438480D01*
X154996555Y-75418535D01*
X154951006Y-75365553D01*
X154940000Y-75314481D01*
X154940000Y-71562487D01*
X154959685Y-71495448D01*
X155012489Y-71449693D01*
X155081647Y-71439749D01*
X155114435Y-71449207D01*
X155168197Y-71473144D01*
X155353354Y-71512500D01*
X155353355Y-71512500D01*
X155542644Y-71512500D01*
X155542646Y-71512500D01*
X155727803Y-71473144D01*
X155900730Y-71396151D01*
X156053871Y-71284888D01*
X156180533Y-71144216D01*
X156231753Y-71055500D01*
X157501157Y-71055500D01*
X157520943Y-71243756D01*
X157520944Y-71243759D01*
X157579435Y-71423777D01*
X157579438Y-71423784D01*
X157674084Y-71587716D01*
X157800746Y-71728387D01*
X157800746Y-71728388D01*
X157953882Y-71839648D01*
X157953887Y-71839651D01*
X158126809Y-71916642D01*
X158126814Y-71916644D01*
X158311971Y-71956000D01*
X158311972Y-71956000D01*
X158501261Y-71956000D01*
X158501263Y-71956000D01*
X158686420Y-71916644D01*
X158859347Y-71839651D01*
X159012488Y-71728388D01*
X159139150Y-71587716D01*
X159233796Y-71423784D01*
X159292291Y-71243756D01*
X159312077Y-71055500D01*
X159292291Y-70867244D01*
X159233796Y-70687216D01*
X159139150Y-70523284D01*
X159012488Y-70382612D01*
X158948127Y-70335851D01*
X158859351Y-70271351D01*
X158859346Y-70271348D01*
X158686424Y-70194357D01*
X158686419Y-70194355D01*
X158540618Y-70163365D01*
X158501263Y-70155000D01*
X158311971Y-70155000D01*
X158279514Y-70161898D01*
X158126814Y-70194355D01*
X158126809Y-70194357D01*
X157953887Y-70271348D01*
X157953882Y-70271351D01*
X157800746Y-70382611D01*
X157674083Y-70523285D01*
X157579438Y-70687215D01*
X157579435Y-70687222D01*
X157520944Y-70867240D01*
X157520943Y-70867244D01*
X157501157Y-71055500D01*
X156231753Y-71055500D01*
X156275179Y-70980284D01*
X156333674Y-70800256D01*
X156353460Y-70612000D01*
X156333674Y-70423744D01*
X156275179Y-70243716D01*
X156180533Y-70079784D01*
X156053871Y-69939112D01*
X156050787Y-69936871D01*
X155900734Y-69827851D01*
X155900729Y-69827848D01*
X155727807Y-69750857D01*
X155727802Y-69750855D01*
X155582001Y-69719865D01*
X155542646Y-69711500D01*
X155353354Y-69711500D01*
X155320897Y-69718398D01*
X155168197Y-69750855D01*
X155168196Y-69750855D01*
X155114435Y-69774792D01*
X155045185Y-69784076D01*
X154981908Y-69754447D01*
X154944696Y-69695312D01*
X154940000Y-69661512D01*
X154940000Y-69425645D01*
X205163500Y-69425645D01*
X205202855Y-69610802D01*
X205202857Y-69610807D01*
X205279848Y-69783729D01*
X205279851Y-69783734D01*
X205391111Y-69936870D01*
X205391112Y-69936871D01*
X205531784Y-70063533D01*
X205695716Y-70158179D01*
X205875744Y-70216674D01*
X206016808Y-70231500D01*
X206016812Y-70231500D01*
X206611188Y-70231500D01*
X206611192Y-70231500D01*
X206752256Y-70216674D01*
X206932284Y-70158179D01*
X207096216Y-70063533D01*
X207236888Y-69936871D01*
X207348151Y-69783730D01*
X207425144Y-69610803D01*
X207464500Y-69425646D01*
X207464500Y-69236354D01*
X207425144Y-69051197D01*
X207390105Y-68972500D01*
X207348151Y-68878270D01*
X207348150Y-68878270D01*
X207327395Y-68849701D01*
X207303916Y-68783898D01*
X207319741Y-68715844D01*
X207321564Y-68712723D01*
X207407478Y-68570606D01*
X207458086Y-68408196D01*
X207464500Y-68337616D01*
X207464500Y-68072000D01*
X209152540Y-68072000D01*
X209172326Y-68260256D01*
X209172327Y-68260259D01*
X209230818Y-68440277D01*
X209230821Y-68440284D01*
X209325467Y-68604216D01*
X209423118Y-68712668D01*
X209452129Y-68744888D01*
X209605265Y-68856148D01*
X209605270Y-68856151D01*
X209778192Y-68933142D01*
X209778197Y-68933144D01*
X209963354Y-68972500D01*
X209963355Y-68972500D01*
X210152644Y-68972500D01*
X210152646Y-68972500D01*
X210337803Y-68933144D01*
X210510730Y-68856151D01*
X210663871Y-68744888D01*
X210790533Y-68604216D01*
X210885179Y-68440284D01*
X210943674Y-68260256D01*
X210963460Y-68072000D01*
X210943674Y-67883744D01*
X210885179Y-67703716D01*
X210790533Y-67539784D01*
X210663871Y-67399112D01*
X210631708Y-67375744D01*
X210510734Y-67287851D01*
X210510729Y-67287848D01*
X210337807Y-67210857D01*
X210337802Y-67210855D01*
X210192000Y-67179865D01*
X210152646Y-67171500D01*
X209963354Y-67171500D01*
X209930897Y-67178398D01*
X209778197Y-67210855D01*
X209778192Y-67210857D01*
X209605270Y-67287848D01*
X209605265Y-67287851D01*
X209452129Y-67399111D01*
X209325466Y-67539785D01*
X209230821Y-67703715D01*
X209230818Y-67703722D01*
X209186491Y-67840148D01*
X209172326Y-67883744D01*
X209152540Y-68072000D01*
X207464500Y-68072000D01*
X207464500Y-67824384D01*
X207458086Y-67753804D01*
X207407478Y-67591394D01*
X207319472Y-67445815D01*
X207319470Y-67445813D01*
X207319469Y-67445811D01*
X207199188Y-67325530D01*
X207136856Y-67287849D01*
X207053606Y-67237522D01*
X206891196Y-67186914D01*
X206891194Y-67186913D01*
X206891192Y-67186913D01*
X206841778Y-67182423D01*
X206820616Y-67180500D01*
X205807384Y-67180500D01*
X205788145Y-67182248D01*
X205736807Y-67186913D01*
X205574393Y-67237522D01*
X205428811Y-67325530D01*
X205308530Y-67445811D01*
X205220522Y-67591393D01*
X205169913Y-67753807D01*
X205164782Y-67810275D01*
X205163500Y-67824384D01*
X205163500Y-68337616D01*
X205165423Y-68358778D01*
X205169913Y-68408192D01*
X205169913Y-68408194D01*
X205169914Y-68408196D01*
X205175195Y-68425144D01*
X205220522Y-68570606D01*
X205306402Y-68712668D01*
X205324238Y-68780223D01*
X205302720Y-68846696D01*
X205300605Y-68849701D01*
X205279848Y-68878271D01*
X205202857Y-69051192D01*
X205202855Y-69051197D01*
X205163500Y-69236354D01*
X205163500Y-69425645D01*
X154940000Y-69425645D01*
X154940000Y-67056000D01*
X176640540Y-67056000D01*
X176660326Y-67244256D01*
X176660327Y-67244259D01*
X176718818Y-67424277D01*
X176718821Y-67424284D01*
X176813467Y-67588216D01*
X176940128Y-67728888D01*
X176940129Y-67728888D01*
X177093265Y-67840148D01*
X177093270Y-67840151D01*
X177266192Y-67917142D01*
X177266197Y-67917144D01*
X177451354Y-67956500D01*
X177451355Y-67956500D01*
X177640644Y-67956500D01*
X177640646Y-67956500D01*
X177825803Y-67917144D01*
X177998730Y-67840151D01*
X178151871Y-67728888D01*
X178278533Y-67588216D01*
X178373179Y-67424284D01*
X178431674Y-67244256D01*
X178451460Y-67056000D01*
X178431674Y-66867744D01*
X178409714Y-66800161D01*
X178407720Y-66730323D01*
X178443800Y-66670490D01*
X178506500Y-66639661D01*
X178548053Y-66639536D01*
X178691665Y-66663500D01*
X178940335Y-66663500D01*
X179185614Y-66622571D01*
X179420810Y-66541828D01*
X179639509Y-66423474D01*
X179835744Y-66270738D01*
X180004164Y-66087785D01*
X180140173Y-65879607D01*
X180240063Y-65651881D01*
X180301108Y-65410821D01*
X180303661Y-65380018D01*
X180315410Y-65238216D01*
X180321643Y-65163005D01*
X181810859Y-65163005D01*
X181831385Y-65410729D01*
X181831387Y-65410738D01*
X181892412Y-65651717D01*
X181992266Y-65879364D01*
X182092564Y-66032882D01*
X182667482Y-65457964D01*
X182728805Y-65424479D01*
X182798496Y-65429463D01*
X182854430Y-65471334D01*
X182857514Y-65476249D01*
X182857549Y-65476225D01*
X182862441Y-65483156D01*
X182965637Y-65593651D01*
X182965638Y-65593652D01*
X183000698Y-65614973D01*
X183047749Y-65666623D01*
X183059407Y-65735513D01*
X183031970Y-65799770D01*
X183023950Y-65808601D01*
X182445942Y-66386609D01*
X182492768Y-66423055D01*
X182492770Y-66423056D01*
X182711385Y-66541364D01*
X182711396Y-66541369D01*
X182946506Y-66622083D01*
X183191707Y-66663000D01*
X183440293Y-66663000D01*
X183685493Y-66622083D01*
X183920603Y-66541369D01*
X183920614Y-66541364D01*
X184139228Y-66423057D01*
X184139231Y-66423055D01*
X184186056Y-66386609D01*
X183609165Y-65809718D01*
X183575680Y-65748395D01*
X183580664Y-65678703D01*
X183618588Y-65625853D01*
X183721739Y-65541934D01*
X183772052Y-65470655D01*
X183826793Y-65427239D01*
X183896318Y-65420310D01*
X183958553Y-65452068D01*
X183961037Y-65454484D01*
X184539434Y-66032882D01*
X184639731Y-65879369D01*
X184739587Y-65651717D01*
X184800612Y-65410738D01*
X184800614Y-65410729D01*
X184816832Y-65215005D01*
X185540357Y-65215005D01*
X185560890Y-65462812D01*
X185560892Y-65462824D01*
X185621936Y-65703881D01*
X185721826Y-65931606D01*
X185857833Y-66139782D01*
X185857836Y-66139785D01*
X186026256Y-66322738D01*
X186212431Y-66467644D01*
X186222494Y-66475476D01*
X186222496Y-66475477D01*
X186443522Y-66595090D01*
X186493113Y-66644309D01*
X186508221Y-66712526D01*
X186484051Y-66778082D01*
X186457391Y-66804463D01*
X186338127Y-66891113D01*
X186211466Y-67031785D01*
X186116821Y-67195715D01*
X186116818Y-67195722D01*
X186058327Y-67375740D01*
X186058326Y-67375744D01*
X186038540Y-67564000D01*
X186058326Y-67752256D01*
X186058327Y-67752259D01*
X186116818Y-67932277D01*
X186116821Y-67932284D01*
X186211467Y-68096216D01*
X186338129Y-68236888D01*
X186491265Y-68348148D01*
X186491270Y-68348151D01*
X186664192Y-68425142D01*
X186664197Y-68425144D01*
X186849354Y-68464500D01*
X186849355Y-68464500D01*
X187038644Y-68464500D01*
X187038646Y-68464500D01*
X187223803Y-68425144D01*
X187396730Y-68348151D01*
X187549871Y-68236888D01*
X187676533Y-68096216D01*
X187771179Y-67932284D01*
X187829674Y-67752256D01*
X187849460Y-67564000D01*
X187829674Y-67375744D01*
X187771179Y-67195716D01*
X187676533Y-67031784D01*
X187549871Y-66891112D01*
X187517705Y-66867742D01*
X187497310Y-66852924D01*
X187454644Y-66797594D01*
X187448665Y-66727981D01*
X187481271Y-66666186D01*
X187529928Y-66635326D01*
X187650810Y-66593828D01*
X187869509Y-66475474D01*
X188065744Y-66322738D01*
X188234164Y-66139785D01*
X188370173Y-65931607D01*
X188470063Y-65703881D01*
X188531108Y-65462821D01*
X188531511Y-65457964D01*
X188537971Y-65380001D01*
X188551643Y-65215005D01*
X190040357Y-65215005D01*
X190060890Y-65462812D01*
X190060892Y-65462824D01*
X190121936Y-65703881D01*
X190221826Y-65931606D01*
X190357833Y-66139782D01*
X190357836Y-66139785D01*
X190526256Y-66322738D01*
X190722491Y-66475474D01*
X190941190Y-66593828D01*
X191176386Y-66674571D01*
X191421665Y-66715500D01*
X191670335Y-66715500D01*
X191915614Y-66674571D01*
X192150810Y-66593828D01*
X192369509Y-66475474D01*
X192565744Y-66322738D01*
X192682061Y-66196383D01*
X192741946Y-66160394D01*
X192811784Y-66162494D01*
X192869400Y-66202017D01*
X192896502Y-66266417D01*
X192896611Y-66293313D01*
X192896540Y-66293989D01*
X192896540Y-66293997D01*
X192896540Y-66294000D01*
X192916326Y-66482256D01*
X192916327Y-66482259D01*
X192974818Y-66662277D01*
X192974821Y-66662284D01*
X193069467Y-66826216D01*
X193127899Y-66891111D01*
X193196129Y-66966888D01*
X193349265Y-67078148D01*
X193349270Y-67078151D01*
X193522192Y-67155142D01*
X193522197Y-67155144D01*
X193707354Y-67194500D01*
X193707355Y-67194500D01*
X193896644Y-67194500D01*
X193896646Y-67194500D01*
X194081803Y-67155144D01*
X194254730Y-67078151D01*
X194285218Y-67056000D01*
X216518540Y-67056000D01*
X216538326Y-67244256D01*
X216538327Y-67244259D01*
X216596818Y-67424277D01*
X216596821Y-67424284D01*
X216691467Y-67588216D01*
X216818129Y-67728888D01*
X216971265Y-67840148D01*
X216971270Y-67840151D01*
X217144192Y-67917142D01*
X217144197Y-67917144D01*
X217329354Y-67956500D01*
X217329355Y-67956500D01*
X217518644Y-67956500D01*
X217518646Y-67956500D01*
X217703803Y-67917144D01*
X217876730Y-67840151D01*
X218029871Y-67728888D01*
X218156533Y-67588216D01*
X218251179Y-67424284D01*
X218309674Y-67244256D01*
X218329460Y-67056000D01*
X218309674Y-66867744D01*
X218251179Y-66687716D01*
X218156533Y-66523784D01*
X218029871Y-66383112D01*
X218029870Y-66383111D01*
X217876734Y-66271851D01*
X217876729Y-66271848D01*
X217703807Y-66194857D01*
X217703802Y-66194855D01*
X217551550Y-66162494D01*
X217518646Y-66155500D01*
X217329354Y-66155500D01*
X217296897Y-66162398D01*
X217144197Y-66194855D01*
X217144192Y-66194857D01*
X216971270Y-66271848D01*
X216971265Y-66271851D01*
X216818129Y-66383111D01*
X216691466Y-66523785D01*
X216596821Y-66687715D01*
X216596818Y-66687722D01*
X216561119Y-66797594D01*
X216538326Y-66867744D01*
X216518540Y-67056000D01*
X194285218Y-67056000D01*
X194407871Y-66966888D01*
X194534533Y-66826216D01*
X194629179Y-66662284D01*
X194687674Y-66482256D01*
X194707460Y-66294000D01*
X194687674Y-66105744D01*
X194629179Y-65925716D01*
X194534533Y-65761784D01*
X194407871Y-65621112D01*
X194399419Y-65614971D01*
X194387760Y-65606500D01*
X203102750Y-65606500D01*
X203122536Y-65794756D01*
X203122537Y-65794759D01*
X203181028Y-65974777D01*
X203181031Y-65974784D01*
X203275677Y-66138716D01*
X203395550Y-66271848D01*
X203402339Y-66279388D01*
X203555475Y-66390648D01*
X203555480Y-66390651D01*
X203728402Y-66467642D01*
X203728407Y-66467644D01*
X203913564Y-66507000D01*
X203913565Y-66507000D01*
X204102854Y-66507000D01*
X204102856Y-66507000D01*
X204288013Y-66467644D01*
X204460940Y-66390651D01*
X204614081Y-66279388D01*
X204740743Y-66138716D01*
X204835389Y-65974784D01*
X204893884Y-65794756D01*
X204913670Y-65606500D01*
X204893884Y-65418244D01*
X204835389Y-65238216D01*
X204740743Y-65074284D01*
X204614081Y-64933612D01*
X204614080Y-64933611D01*
X204460944Y-64822351D01*
X204460939Y-64822348D01*
X204288017Y-64745357D01*
X204288012Y-64745355D01*
X204142210Y-64714365D01*
X204102856Y-64706000D01*
X203913564Y-64706000D01*
X203881107Y-64712898D01*
X203728407Y-64745355D01*
X203728402Y-64745357D01*
X203555480Y-64822348D01*
X203555475Y-64822351D01*
X203402339Y-64933611D01*
X203275676Y-65074285D01*
X203181031Y-65238215D01*
X203181028Y-65238222D01*
X203124948Y-65410821D01*
X203122536Y-65418244D01*
X203102750Y-65606500D01*
X194387760Y-65606500D01*
X194254734Y-65509851D01*
X194254729Y-65509848D01*
X194081807Y-65432857D01*
X194081802Y-65432855D01*
X193936000Y-65401865D01*
X193896646Y-65393500D01*
X193707354Y-65393500D01*
X193674897Y-65400398D01*
X193522197Y-65432855D01*
X193522192Y-65432857D01*
X193349270Y-65509848D01*
X193349265Y-65509851D01*
X193221983Y-65602327D01*
X193156176Y-65625807D01*
X193088123Y-65609981D01*
X193039428Y-65559875D01*
X193025553Y-65491397D01*
X193028894Y-65471562D01*
X193028952Y-65471334D01*
X193031108Y-65462821D01*
X193031511Y-65457964D01*
X193037971Y-65380001D01*
X193051643Y-65215000D01*
X193031108Y-64967179D01*
X193007494Y-64873930D01*
X192970063Y-64726118D01*
X192870173Y-64498393D01*
X192734166Y-64290217D01*
X192686296Y-64238217D01*
X192565744Y-64107262D01*
X192369509Y-63954526D01*
X192369507Y-63954525D01*
X192369506Y-63954524D01*
X192150811Y-63836172D01*
X192150802Y-63836169D01*
X191915616Y-63755429D01*
X191670335Y-63714500D01*
X191421665Y-63714500D01*
X191176383Y-63755429D01*
X190941197Y-63836169D01*
X190941188Y-63836172D01*
X190722493Y-63954524D01*
X190526257Y-64107261D01*
X190357833Y-64290217D01*
X190221826Y-64498393D01*
X190121936Y-64726118D01*
X190060892Y-64967175D01*
X190060890Y-64967187D01*
X190040357Y-65214994D01*
X190040357Y-65215005D01*
X188551643Y-65215005D01*
X188551643Y-65215000D01*
X188531108Y-64967179D01*
X188507494Y-64873930D01*
X188470063Y-64726118D01*
X188370173Y-64498393D01*
X188234166Y-64290217D01*
X188186296Y-64238217D01*
X188065744Y-64107262D01*
X187869509Y-63954526D01*
X187869507Y-63954525D01*
X187869506Y-63954524D01*
X187650811Y-63836172D01*
X187650802Y-63836169D01*
X187415616Y-63755429D01*
X187170335Y-63714500D01*
X186921665Y-63714500D01*
X186676383Y-63755429D01*
X186441197Y-63836169D01*
X186441188Y-63836172D01*
X186222493Y-63954524D01*
X186026257Y-64107261D01*
X185857833Y-64290217D01*
X185721826Y-64498393D01*
X185621936Y-64726118D01*
X185560892Y-64967175D01*
X185560890Y-64967187D01*
X185540357Y-65214994D01*
X185540357Y-65215005D01*
X184816832Y-65215005D01*
X184821141Y-65163005D01*
X184821141Y-65162994D01*
X184800614Y-64915270D01*
X184800612Y-64915261D01*
X184739587Y-64674282D01*
X184639731Y-64446630D01*
X184539434Y-64293116D01*
X183964517Y-64868034D01*
X183903194Y-64901519D01*
X183833502Y-64896535D01*
X183777569Y-64854663D01*
X183774486Y-64849750D01*
X183774451Y-64849775D01*
X183769558Y-64842843D01*
X183701526Y-64770000D01*
X183666362Y-64732348D01*
X183631300Y-64711026D01*
X183584248Y-64659374D01*
X183572591Y-64590484D01*
X183600029Y-64526227D01*
X183608048Y-64517397D01*
X184186056Y-63939389D01*
X184139229Y-63902943D01*
X183920614Y-63784635D01*
X183920603Y-63784630D01*
X183685493Y-63703916D01*
X183440293Y-63663000D01*
X183191707Y-63663000D01*
X182946506Y-63703916D01*
X182711396Y-63784630D01*
X182711390Y-63784632D01*
X182492761Y-63902949D01*
X182445942Y-63939388D01*
X182445942Y-63939390D01*
X183022833Y-64516280D01*
X183056318Y-64577603D01*
X183051334Y-64647294D01*
X183013408Y-64700148D01*
X182910262Y-64784064D01*
X182910258Y-64784069D01*
X182859947Y-64855343D01*
X182805204Y-64898760D01*
X182735679Y-64905689D01*
X182673444Y-64873930D01*
X182670962Y-64871515D01*
X182092564Y-64293116D01*
X181992267Y-64446632D01*
X181892412Y-64674282D01*
X181831387Y-64915261D01*
X181831385Y-64915270D01*
X181810859Y-65162994D01*
X181810859Y-65163005D01*
X180321643Y-65163005D01*
X180321643Y-65163000D01*
X180306238Y-64977085D01*
X180301109Y-64915187D01*
X180301107Y-64915175D01*
X180240063Y-64674118D01*
X180140173Y-64446393D01*
X180004166Y-64238217D01*
X179883612Y-64107261D01*
X179835744Y-64055262D01*
X179639509Y-63902526D01*
X179639507Y-63902525D01*
X179639506Y-63902524D01*
X179420811Y-63784172D01*
X179420802Y-63784169D01*
X179185616Y-63703429D01*
X178940335Y-63662500D01*
X178691665Y-63662500D01*
X178446383Y-63703429D01*
X178211197Y-63784169D01*
X178211188Y-63784172D01*
X177992493Y-63902524D01*
X177796257Y-64055261D01*
X177627833Y-64238217D01*
X177491826Y-64446393D01*
X177391936Y-64674118D01*
X177330892Y-64915175D01*
X177330890Y-64915187D01*
X177310357Y-65162994D01*
X177310357Y-65163005D01*
X177330890Y-65410812D01*
X177330892Y-65410824D01*
X177391936Y-65651881D01*
X177491825Y-65879603D01*
X177491827Y-65879607D01*
X177546876Y-65963866D01*
X177567063Y-66030755D01*
X177547883Y-66097940D01*
X177495425Y-66144091D01*
X177456044Y-66155006D01*
X177451360Y-66155498D01*
X177266197Y-66194855D01*
X177266192Y-66194857D01*
X177093270Y-66271848D01*
X177093265Y-66271851D01*
X176940129Y-66383111D01*
X176813466Y-66523785D01*
X176718821Y-66687715D01*
X176718818Y-66687722D01*
X176683119Y-66797594D01*
X176660326Y-66867744D01*
X176640540Y-67056000D01*
X154940000Y-67056000D01*
X154940000Y-64770000D01*
X159301040Y-64770000D01*
X159320826Y-64958256D01*
X159320827Y-64958259D01*
X159379318Y-65138277D01*
X159379321Y-65138284D01*
X159473967Y-65302216D01*
X159586539Y-65427239D01*
X159600629Y-65442888D01*
X159753765Y-65554148D01*
X159753770Y-65554151D01*
X159926692Y-65631142D01*
X159926697Y-65631144D01*
X160111854Y-65670500D01*
X160111855Y-65670500D01*
X160301144Y-65670500D01*
X160301146Y-65670500D01*
X160486303Y-65631144D01*
X160659230Y-65554151D01*
X160812371Y-65442888D01*
X160939033Y-65302216D01*
X161033679Y-65138284D01*
X161092174Y-64958256D01*
X161111960Y-64770000D01*
X161092174Y-64581744D01*
X161033679Y-64401716D01*
X160939033Y-64237784D01*
X160812371Y-64097112D01*
X160788816Y-64079998D01*
X160659234Y-63985851D01*
X160659229Y-63985848D01*
X160486307Y-63908857D01*
X160486302Y-63908855D01*
X160340500Y-63877865D01*
X160301146Y-63869500D01*
X160111854Y-63869500D01*
X160079397Y-63876398D01*
X159926697Y-63908855D01*
X159926692Y-63908857D01*
X159753770Y-63985848D01*
X159753765Y-63985851D01*
X159600629Y-64097111D01*
X159473966Y-64237785D01*
X159379321Y-64401715D01*
X159379318Y-64401722D01*
X159320827Y-64581740D01*
X159320826Y-64581744D01*
X159301040Y-64770000D01*
X154940000Y-64770000D01*
X154940000Y-60198000D01*
X157844540Y-60198000D01*
X157864326Y-60386256D01*
X157864327Y-60386259D01*
X157922818Y-60566277D01*
X157922821Y-60566284D01*
X158017467Y-60730216D01*
X158144128Y-60870888D01*
X158144129Y-60870888D01*
X158297265Y-60982148D01*
X158297270Y-60982151D01*
X158470192Y-61059142D01*
X158470197Y-61059144D01*
X158655354Y-61098500D01*
X158655355Y-61098500D01*
X158844644Y-61098500D01*
X158844646Y-61098500D01*
X159029803Y-61059144D01*
X159202730Y-60982151D01*
X159233218Y-60960000D01*
X160384540Y-60960000D01*
X160404326Y-61148256D01*
X160404327Y-61148259D01*
X160462818Y-61328277D01*
X160462821Y-61328284D01*
X160557467Y-61492216D01*
X160684128Y-61632888D01*
X160684129Y-61632888D01*
X160837265Y-61744148D01*
X160837270Y-61744151D01*
X161010192Y-61821142D01*
X161010197Y-61821144D01*
X161195354Y-61860500D01*
X161195355Y-61860500D01*
X161384644Y-61860500D01*
X161384646Y-61860500D01*
X161569803Y-61821144D01*
X161742730Y-61744151D01*
X161895871Y-61632888D01*
X162022533Y-61492216D01*
X162071613Y-61407205D01*
X162122179Y-61358991D01*
X162190786Y-61345767D01*
X162255651Y-61371735D01*
X162286385Y-61407203D01*
X162330005Y-61482756D01*
X162335467Y-61492216D01*
X162462129Y-61632888D01*
X162615265Y-61744148D01*
X162615270Y-61744151D01*
X162788192Y-61821142D01*
X162788197Y-61821144D01*
X162973354Y-61860500D01*
X162973355Y-61860500D01*
X163162644Y-61860500D01*
X163162646Y-61860500D01*
X163347803Y-61821144D01*
X163520730Y-61744151D01*
X163673871Y-61632888D01*
X163800533Y-61492216D01*
X163895179Y-61328284D01*
X163906156Y-61294500D01*
X172576540Y-61294500D01*
X172596326Y-61482756D01*
X172596327Y-61482759D01*
X172654818Y-61662777D01*
X172654821Y-61662784D01*
X172749467Y-61826716D01*
X172829627Y-61915742D01*
X172876129Y-61967388D01*
X173029265Y-62078648D01*
X173029270Y-62078651D01*
X173202192Y-62155642D01*
X173202197Y-62155644D01*
X173387354Y-62195000D01*
X173387355Y-62195000D01*
X173576644Y-62195000D01*
X173576646Y-62195000D01*
X173761803Y-62155644D01*
X173934730Y-62078651D01*
X174087871Y-61967388D01*
X174214533Y-61826716D01*
X174309179Y-61662784D01*
X174367674Y-61482756D01*
X174387460Y-61294500D01*
X184260540Y-61294500D01*
X184280326Y-61482756D01*
X184280327Y-61482759D01*
X184338818Y-61662777D01*
X184338821Y-61662784D01*
X184433467Y-61826716D01*
X184513627Y-61915742D01*
X184560129Y-61967388D01*
X184713265Y-62078648D01*
X184713270Y-62078651D01*
X184886192Y-62155642D01*
X184886197Y-62155644D01*
X185071354Y-62195000D01*
X185071355Y-62195000D01*
X185260644Y-62195000D01*
X185260646Y-62195000D01*
X185445803Y-62155644D01*
X185618730Y-62078651D01*
X185760018Y-61976000D01*
X192388540Y-61976000D01*
X192408326Y-62164256D01*
X192408327Y-62164259D01*
X192466818Y-62344277D01*
X192466821Y-62344284D01*
X192561467Y-62508216D01*
X192674458Y-62633705D01*
X192688129Y-62648888D01*
X192841265Y-62760148D01*
X192841270Y-62760151D01*
X193014192Y-62837142D01*
X193014197Y-62837144D01*
X193199354Y-62876500D01*
X193199355Y-62876500D01*
X193388644Y-62876500D01*
X193388646Y-62876500D01*
X193573803Y-62837144D01*
X193746730Y-62760151D01*
X193899871Y-62648888D01*
X194026533Y-62508216D01*
X194121179Y-62344284D01*
X194179674Y-62164256D01*
X194199460Y-61976000D01*
X194179674Y-61787744D01*
X194121179Y-61607716D01*
X194026533Y-61443784D01*
X193899871Y-61303112D01*
X193888018Y-61294500D01*
X193746734Y-61191851D01*
X193746729Y-61191848D01*
X193573807Y-61114857D01*
X193573802Y-61114855D01*
X193412169Y-61080500D01*
X193388646Y-61075500D01*
X193199354Y-61075500D01*
X193175831Y-61080500D01*
X193014197Y-61114855D01*
X193014192Y-61114857D01*
X192841270Y-61191848D01*
X192841265Y-61191851D01*
X192688129Y-61303111D01*
X192561466Y-61443785D01*
X192466821Y-61607715D01*
X192466818Y-61607722D01*
X192422491Y-61744148D01*
X192408326Y-61787744D01*
X192388540Y-61976000D01*
X185760018Y-61976000D01*
X185771871Y-61967388D01*
X185898533Y-61826716D01*
X185993179Y-61662784D01*
X186051674Y-61482756D01*
X186071460Y-61294500D01*
X186051674Y-61106244D01*
X185993179Y-60926216D01*
X185898533Y-60762284D01*
X185771871Y-60621612D01*
X185771870Y-60621611D01*
X185618734Y-60510351D01*
X185618729Y-60510348D01*
X185445807Y-60433357D01*
X185445802Y-60433355D01*
X185300001Y-60402365D01*
X185260646Y-60394000D01*
X185071354Y-60394000D01*
X185038897Y-60400898D01*
X184886197Y-60433355D01*
X184886192Y-60433357D01*
X184713270Y-60510348D01*
X184713265Y-60510351D01*
X184560129Y-60621611D01*
X184433466Y-60762285D01*
X184338821Y-60926215D01*
X184338818Y-60926222D01*
X184288242Y-61081880D01*
X184280326Y-61106244D01*
X184260540Y-61294500D01*
X174387460Y-61294500D01*
X174367674Y-61106244D01*
X174309179Y-60926216D01*
X174214533Y-60762284D01*
X174087871Y-60621612D01*
X174087870Y-60621611D01*
X173934734Y-60510351D01*
X173934729Y-60510348D01*
X173761807Y-60433357D01*
X173761802Y-60433355D01*
X173616001Y-60402365D01*
X173576646Y-60394000D01*
X173387354Y-60394000D01*
X173354897Y-60400898D01*
X173202197Y-60433355D01*
X173202192Y-60433357D01*
X173029270Y-60510348D01*
X173029265Y-60510351D01*
X172876129Y-60621611D01*
X172749466Y-60762285D01*
X172654821Y-60926215D01*
X172654818Y-60926222D01*
X172604242Y-61081880D01*
X172596326Y-61106244D01*
X172576540Y-61294500D01*
X163906156Y-61294500D01*
X163953674Y-61148256D01*
X163973460Y-60960000D01*
X163953674Y-60771744D01*
X163895179Y-60591716D01*
X163800533Y-60427784D01*
X163673871Y-60287112D01*
X163673870Y-60287111D01*
X163520734Y-60175851D01*
X163520729Y-60175848D01*
X163347807Y-60098857D01*
X163347805Y-60098856D01*
X163281218Y-60084702D01*
X163219737Y-60051508D01*
X163189070Y-60001730D01*
X163133181Y-59829721D01*
X163133178Y-59829715D01*
X163129150Y-59822738D01*
X163038533Y-59665784D01*
X162911871Y-59525112D01*
X162911870Y-59525111D01*
X162758734Y-59413851D01*
X162758729Y-59413848D01*
X162585807Y-59336857D01*
X162585802Y-59336855D01*
X162440000Y-59305865D01*
X162400646Y-59297500D01*
X162211354Y-59297500D01*
X162178897Y-59304398D01*
X162026197Y-59336855D01*
X162026192Y-59336857D01*
X161853270Y-59413848D01*
X161853265Y-59413851D01*
X161700129Y-59525111D01*
X161573466Y-59665785D01*
X161478821Y-59829715D01*
X161478818Y-59829722D01*
X161431999Y-59973818D01*
X161392561Y-60031494D01*
X161328203Y-60058692D01*
X161314068Y-60059500D01*
X161195354Y-60059500D01*
X161162897Y-60066398D01*
X161010197Y-60098855D01*
X161010192Y-60098857D01*
X160837270Y-60175848D01*
X160837265Y-60175851D01*
X160684129Y-60287111D01*
X160557466Y-60427785D01*
X160462821Y-60591715D01*
X160462818Y-60591722D01*
X160404327Y-60771740D01*
X160404326Y-60771744D01*
X160384540Y-60960000D01*
X159233218Y-60960000D01*
X159355871Y-60870888D01*
X159482533Y-60730216D01*
X159577179Y-60566284D01*
X159635674Y-60386256D01*
X159655460Y-60198000D01*
X159635674Y-60009744D01*
X159577179Y-59829716D01*
X159482533Y-59665784D01*
X159355871Y-59525112D01*
X159355870Y-59525111D01*
X159202734Y-59413851D01*
X159202729Y-59413848D01*
X159029807Y-59336857D01*
X159029802Y-59336855D01*
X158884001Y-59305865D01*
X158844646Y-59297500D01*
X158655354Y-59297500D01*
X158622897Y-59304398D01*
X158470197Y-59336855D01*
X158470192Y-59336857D01*
X158297270Y-59413848D01*
X158297265Y-59413851D01*
X158144129Y-59525111D01*
X158017466Y-59665785D01*
X157922821Y-59829715D01*
X157922818Y-59829722D01*
X157871330Y-59988187D01*
X157864326Y-60009744D01*
X157844540Y-60198000D01*
X154940000Y-60198000D01*
X154940000Y-57782000D01*
X154959685Y-57714961D01*
X155012489Y-57669206D01*
X155064000Y-57658000D01*
X164010047Y-57658000D01*
X164077086Y-57677685D01*
G37*
%TD.AperFunction*%
%TD*%
%TA.AperFunction,Conductor*%
%TO.N,VDD*%
G36*
X146661129Y-57677685D02*
G01*
X146706884Y-57730489D01*
X146716828Y-57799647D01*
X146712021Y-57820318D01*
X146688326Y-57893244D01*
X146668540Y-58081500D01*
X146688326Y-58269756D01*
X146688327Y-58269759D01*
X146746818Y-58449777D01*
X146746821Y-58449784D01*
X146841467Y-58613716D01*
X146968128Y-58754388D01*
X146968129Y-58754388D01*
X147121265Y-58865648D01*
X147121270Y-58865651D01*
X147294192Y-58942642D01*
X147294197Y-58942644D01*
X147479354Y-58982000D01*
X147479355Y-58982000D01*
X147668644Y-58982000D01*
X147668646Y-58982000D01*
X147853803Y-58942644D01*
X148026730Y-58865651D01*
X148179871Y-58754388D01*
X148306533Y-58613716D01*
X148401179Y-58449784D01*
X148459674Y-58269756D01*
X148479460Y-58081500D01*
X148459674Y-57893244D01*
X148435979Y-57820318D01*
X148433984Y-57750477D01*
X148470064Y-57690644D01*
X148532765Y-57659816D01*
X148553910Y-57658000D01*
X149736000Y-57658000D01*
X149803039Y-57677685D01*
X149848794Y-57730489D01*
X149860000Y-57782000D01*
X149860000Y-69136096D01*
X149843387Y-69198096D01*
X149794821Y-69282214D01*
X149751191Y-69416493D01*
X149736326Y-69462244D01*
X149716540Y-69650500D01*
X149736326Y-69838756D01*
X149736327Y-69838759D01*
X149794818Y-70018777D01*
X149794821Y-70018784D01*
X149843387Y-70102903D01*
X149860000Y-70164902D01*
X149860000Y-70861449D01*
X149840315Y-70928488D01*
X149787511Y-70974243D01*
X149718353Y-70984187D01*
X149654797Y-70955162D01*
X149648319Y-70949131D01*
X149532078Y-70832891D01*
X149338578Y-70697399D01*
X149124492Y-70597570D01*
X149124486Y-70597567D01*
X148911000Y-70540364D01*
X148911000Y-71258698D01*
X148891315Y-71325737D01*
X148838511Y-71371492D01*
X148769355Y-71381436D01*
X148696766Y-71371000D01*
X148696763Y-71371000D01*
X148625237Y-71371000D01*
X148625233Y-71371000D01*
X148552645Y-71381436D01*
X148483487Y-71371492D01*
X148430684Y-71325736D01*
X148411000Y-71258698D01*
X148411000Y-70540364D01*
X148410999Y-70540364D01*
X148197513Y-70597567D01*
X148197507Y-70597570D01*
X147983422Y-70697399D01*
X147983420Y-70697400D01*
X147789926Y-70832886D01*
X147789920Y-70832891D01*
X147622891Y-70999920D01*
X147622886Y-70999926D01*
X147487400Y-71193420D01*
X147487399Y-71193422D01*
X147387570Y-71407507D01*
X147387567Y-71407513D01*
X147330364Y-71620999D01*
X147330364Y-71621000D01*
X148047653Y-71621000D01*
X148114692Y-71640685D01*
X148160447Y-71693489D01*
X148170391Y-71762647D01*
X148166631Y-71779933D01*
X148161000Y-71799111D01*
X148161000Y-71942888D01*
X148166631Y-71962067D01*
X148166630Y-72031936D01*
X148128855Y-72090714D01*
X148065299Y-72119738D01*
X148047653Y-72121000D01*
X147330364Y-72121000D01*
X147387567Y-72334486D01*
X147387570Y-72334492D01*
X147487399Y-72548578D01*
X147622894Y-72742082D01*
X147789917Y-72909105D01*
X147983421Y-73044600D01*
X148197507Y-73144429D01*
X148197516Y-73144433D01*
X148411000Y-73201634D01*
X148411000Y-72483301D01*
X148430685Y-72416262D01*
X148483489Y-72370507D01*
X148552647Y-72360563D01*
X148625237Y-72371000D01*
X148625238Y-72371000D01*
X148696762Y-72371000D01*
X148696763Y-72371000D01*
X148769353Y-72360563D01*
X148838512Y-72370507D01*
X148891315Y-72416262D01*
X148911000Y-72483301D01*
X148911000Y-73201633D01*
X149124483Y-73144433D01*
X149124492Y-73144429D01*
X149338578Y-73044600D01*
X149532082Y-72909105D01*
X149648319Y-72792869D01*
X149709642Y-72759384D01*
X149779334Y-72764368D01*
X149835267Y-72806240D01*
X149859684Y-72871704D01*
X149860000Y-72880550D01*
X149860000Y-75314000D01*
X149840315Y-75381039D01*
X149787511Y-75426794D01*
X149736000Y-75438000D01*
X148087930Y-75438000D01*
X148020891Y-75418315D01*
X147975136Y-75365511D01*
X147965192Y-75296353D01*
X147994217Y-75232797D01*
X148021619Y-75210172D01*
X148021473Y-75209971D01*
X148024725Y-75207607D01*
X148025933Y-75206611D01*
X148026724Y-75206153D01*
X148026730Y-75206151D01*
X148179871Y-75094888D01*
X148306533Y-74954216D01*
X148401179Y-74790284D01*
X148459674Y-74610256D01*
X148479460Y-74422000D01*
X148459674Y-74233744D01*
X148401179Y-74053716D01*
X148306533Y-73889784D01*
X148179871Y-73749112D01*
X148179870Y-73749111D01*
X148026734Y-73637851D01*
X148026729Y-73637848D01*
X147853807Y-73560857D01*
X147853802Y-73560855D01*
X147708001Y-73529865D01*
X147668646Y-73521500D01*
X147479354Y-73521500D01*
X147446897Y-73528398D01*
X147294197Y-73560855D01*
X147294192Y-73560857D01*
X147121270Y-73637848D01*
X147121265Y-73637851D01*
X146968129Y-73749111D01*
X146841466Y-73889785D01*
X146746821Y-74053715D01*
X146746818Y-74053722D01*
X146688327Y-74233740D01*
X146688326Y-74233744D01*
X146668540Y-74422000D01*
X146688326Y-74610256D01*
X146688327Y-74610259D01*
X146746818Y-74790277D01*
X146746821Y-74790284D01*
X146841467Y-74954216D01*
X146968128Y-75094888D01*
X146968129Y-75094888D01*
X147121265Y-75206148D01*
X147122067Y-75206611D01*
X147122438Y-75207000D01*
X147126527Y-75209971D01*
X147125983Y-75210718D01*
X147170284Y-75257177D01*
X147183509Y-75325784D01*
X147157542Y-75390649D01*
X147100629Y-75431179D01*
X147060070Y-75438000D01*
X140841784Y-75438000D01*
X140774745Y-75418315D01*
X140728990Y-75365511D01*
X140717797Y-75312229D01*
X140747543Y-73229959D01*
X140758637Y-72453401D01*
X142892746Y-72453401D01*
X142902745Y-72663327D01*
X142952296Y-72867578D01*
X142952298Y-72867582D01*
X143039598Y-73058743D01*
X143039601Y-73058748D01*
X143039602Y-73058750D01*
X143039604Y-73058753D01*
X143161514Y-73229952D01*
X143161515Y-73229953D01*
X143161520Y-73229959D01*
X143313620Y-73374985D01*
X143408578Y-73436011D01*
X143490428Y-73488613D01*
X143685543Y-73566725D01*
X143788728Y-73586612D01*
X143891914Y-73606500D01*
X143891915Y-73606500D01*
X144599419Y-73606500D01*
X144599425Y-73606500D01*
X144756218Y-73591528D01*
X144957875Y-73532316D01*
X145144682Y-73436011D01*
X145309886Y-73306092D01*
X145447519Y-73147256D01*
X145552604Y-72965244D01*
X145621344Y-72766633D01*
X145651254Y-72558602D01*
X145641254Y-72348670D01*
X145591704Y-72144424D01*
X145581007Y-72121000D01*
X145504401Y-71953256D01*
X145504398Y-71953251D01*
X145504397Y-71953250D01*
X145504396Y-71953247D01*
X145382486Y-71782048D01*
X145362139Y-71762647D01*
X145279543Y-71683892D01*
X145244608Y-71623383D01*
X145247933Y-71553593D01*
X145288461Y-71496678D01*
X145300017Y-71488610D01*
X145365343Y-71448317D01*
X145489315Y-71324345D01*
X145581356Y-71175124D01*
X145581358Y-71175119D01*
X145636505Y-71008697D01*
X145636506Y-71008690D01*
X145646999Y-70905986D01*
X145647000Y-70905973D01*
X145647000Y-70756000D01*
X144760192Y-70756000D01*
X144693153Y-70736315D01*
X144647398Y-70683511D01*
X144637454Y-70614353D01*
X144639987Y-70601559D01*
X144640551Y-70599329D01*
X144650886Y-70474605D01*
X144635202Y-70412670D01*
X144634637Y-70410438D01*
X144637262Y-70340619D01*
X144677219Y-70283302D01*
X144741820Y-70256686D01*
X144754843Y-70256000D01*
X145646999Y-70256000D01*
X145646999Y-70106028D01*
X145646998Y-70106013D01*
X145636505Y-70003302D01*
X145581358Y-69836880D01*
X145581356Y-69836875D01*
X145489315Y-69687654D01*
X145365345Y-69563684D01*
X145216124Y-69471643D01*
X145216119Y-69471641D01*
X145049697Y-69416494D01*
X145049690Y-69416493D01*
X144946986Y-69406000D01*
X144522000Y-69406000D01*
X144522000Y-70021669D01*
X144502315Y-70088708D01*
X144449511Y-70134463D01*
X144380353Y-70144407D01*
X144357740Y-70138951D01*
X144334578Y-70131000D01*
X144334576Y-70131000D01*
X144240927Y-70131000D01*
X144240926Y-70131000D01*
X144166408Y-70143434D01*
X144097043Y-70135052D01*
X144043222Y-70090498D01*
X144022031Y-70023919D01*
X144022000Y-70021125D01*
X144022000Y-69406000D01*
X143597028Y-69406000D01*
X143597012Y-69406001D01*
X143494302Y-69416494D01*
X143327880Y-69471641D01*
X143327875Y-69471643D01*
X143178654Y-69563684D01*
X143054684Y-69687654D01*
X142962643Y-69836875D01*
X142962641Y-69836880D01*
X142907494Y-70003302D01*
X142907493Y-70003309D01*
X142897000Y-70106013D01*
X142897000Y-70256000D01*
X143783808Y-70256000D01*
X143850847Y-70275685D01*
X143896602Y-70328489D01*
X143906546Y-70397647D01*
X143904013Y-70410441D01*
X143903448Y-70412670D01*
X143893113Y-70537392D01*
X143893113Y-70537395D01*
X143893114Y-70537395D01*
X143909362Y-70601559D01*
X143909363Y-70601560D01*
X143906738Y-70671381D01*
X143866781Y-70728698D01*
X143802180Y-70755314D01*
X143789157Y-70756000D01*
X142897001Y-70756000D01*
X142897001Y-70905986D01*
X142907494Y-71008697D01*
X142962641Y-71175119D01*
X142962643Y-71175124D01*
X143054684Y-71324345D01*
X143178654Y-71448315D01*
X143242158Y-71487485D01*
X143288882Y-71539433D01*
X143300105Y-71608396D01*
X143272261Y-71672478D01*
X143253715Y-71690493D01*
X143234113Y-71705908D01*
X143234112Y-71705909D01*
X143096478Y-71864746D01*
X142991398Y-72046750D01*
X142922656Y-72245365D01*
X142922656Y-72245367D01*
X142898086Y-72416262D01*
X142892746Y-72453401D01*
X140758637Y-72453401D01*
X140850257Y-66040000D01*
X145652540Y-66040000D01*
X145672326Y-66228256D01*
X145672327Y-66228259D01*
X145730818Y-66408277D01*
X145730821Y-66408284D01*
X145825467Y-66572216D01*
X145952128Y-66712888D01*
X145952129Y-66712888D01*
X146105265Y-66824148D01*
X146105270Y-66824151D01*
X146278192Y-66901142D01*
X146278197Y-66901144D01*
X146463354Y-66940500D01*
X146463355Y-66940500D01*
X146652644Y-66940500D01*
X146652646Y-66940500D01*
X146837803Y-66901144D01*
X147010730Y-66824151D01*
X147163871Y-66712888D01*
X147290533Y-66572216D01*
X147385179Y-66408284D01*
X147443674Y-66228256D01*
X147463460Y-66040000D01*
X147443674Y-65851744D01*
X147385179Y-65671716D01*
X147290533Y-65507784D01*
X147163871Y-65367112D01*
X147163870Y-65367111D01*
X147010734Y-65255851D01*
X147010729Y-65255848D01*
X146837807Y-65178857D01*
X146837802Y-65178855D01*
X146692000Y-65147865D01*
X146652646Y-65139500D01*
X146463354Y-65139500D01*
X146430897Y-65146398D01*
X146278197Y-65178855D01*
X146278192Y-65178857D01*
X146105270Y-65255848D01*
X146105265Y-65255851D01*
X145952129Y-65367111D01*
X145825466Y-65507785D01*
X145730821Y-65671715D01*
X145730818Y-65671722D01*
X145672327Y-65851740D01*
X145672326Y-65851744D01*
X145652540Y-66040000D01*
X140850257Y-66040000D01*
X140890239Y-63241224D01*
X140910878Y-63174478D01*
X140964330Y-63129482D01*
X141033623Y-63120528D01*
X141039995Y-63121709D01*
X141081354Y-63130500D01*
X141081355Y-63130500D01*
X141270644Y-63130500D01*
X141270646Y-63130500D01*
X141455803Y-63091144D01*
X141628730Y-63014151D01*
X141781871Y-62902888D01*
X141908533Y-62762216D01*
X142003179Y-62598284D01*
X142061674Y-62418256D01*
X142081460Y-62230000D01*
X145398540Y-62230000D01*
X145418326Y-62418256D01*
X145418327Y-62418259D01*
X145476818Y-62598277D01*
X145476821Y-62598284D01*
X145571467Y-62762216D01*
X145698129Y-62902888D01*
X145851265Y-63014148D01*
X145851270Y-63014151D01*
X146024192Y-63091142D01*
X146024197Y-63091144D01*
X146209354Y-63130500D01*
X146209355Y-63130500D01*
X146398644Y-63130500D01*
X146398646Y-63130500D01*
X146583803Y-63091144D01*
X146756730Y-63014151D01*
X146909871Y-62902888D01*
X147036533Y-62762216D01*
X147131179Y-62598284D01*
X147189674Y-62418256D01*
X147209460Y-62230000D01*
X147189674Y-62041744D01*
X147131179Y-61861716D01*
X147036533Y-61697784D01*
X146909871Y-61557112D01*
X146909870Y-61557111D01*
X146756734Y-61445851D01*
X146756729Y-61445848D01*
X146583807Y-61368857D01*
X146583802Y-61368855D01*
X146438001Y-61337865D01*
X146398646Y-61329500D01*
X146209354Y-61329500D01*
X146176897Y-61336398D01*
X146024197Y-61368855D01*
X146024192Y-61368857D01*
X145851270Y-61445848D01*
X145851265Y-61445851D01*
X145698129Y-61557111D01*
X145571466Y-61697785D01*
X145476821Y-61861715D01*
X145476818Y-61861722D01*
X145418327Y-62041740D01*
X145418326Y-62041744D01*
X145398540Y-62230000D01*
X142081460Y-62230000D01*
X142061674Y-62041744D01*
X142003179Y-61861716D01*
X141908533Y-61697784D01*
X141781871Y-61557112D01*
X141781870Y-61557111D01*
X141628734Y-61445851D01*
X141628729Y-61445848D01*
X141455807Y-61368857D01*
X141455802Y-61368855D01*
X141310001Y-61337865D01*
X141270646Y-61329500D01*
X141081354Y-61329500D01*
X141074249Y-61331010D01*
X141069031Y-61332119D01*
X140999365Y-61326799D01*
X140943633Y-61284659D01*
X140919532Y-61219077D01*
X140919270Y-61209071D01*
X140963950Y-58081499D01*
X140968254Y-57780229D01*
X140988894Y-57713477D01*
X141042346Y-57668481D01*
X141092241Y-57658000D01*
X146594090Y-57658000D01*
X146661129Y-57677685D01*
G37*
%TD.AperFunction*%
%TD*%
M02*
