%TF.GenerationSoftware,KiCad,Pcbnew,7.0.7*%
%TF.CreationDate,2024-07-03T20:03:01-05:00*%
%TF.ProjectId,LightsaberDesign,4c696768-7473-4616-9265-724465736967,rev?*%
%TF.SameCoordinates,Original*%
%TF.FileFunction,Paste,Top*%
%TF.FilePolarity,Positive*%
%FSLAX46Y46*%
G04 Gerber Fmt 4.6, Leading zero omitted, Abs format (unit mm)*
G04 Created by KiCad (PCBNEW 7.0.7) date 2024-07-03 20:03:01*
%MOMM*%
%LPD*%
G01*
G04 APERTURE LIST*
G04 Aperture macros list*
%AMRoundRect*
0 Rectangle with rounded corners*
0 $1 Rounding radius*
0 $2 $3 $4 $5 $6 $7 $8 $9 X,Y pos of 4 corners*
0 Add a 4 corners polygon primitive as box body*
4,1,4,$2,$3,$4,$5,$6,$7,$8,$9,$2,$3,0*
0 Add four circle primitives for the rounded corners*
1,1,$1+$1,$2,$3*
1,1,$1+$1,$4,$5*
1,1,$1+$1,$6,$7*
1,1,$1+$1,$8,$9*
0 Add four rect primitives between the rounded corners*
20,1,$1+$1,$2,$3,$4,$5,0*
20,1,$1+$1,$4,$5,$6,$7,0*
20,1,$1+$1,$6,$7,$8,$9,0*
20,1,$1+$1,$8,$9,$2,$3,0*%
G04 Aperture macros list end*
%ADD10RoundRect,0.250000X0.475000X-0.337500X0.475000X0.337500X-0.475000X0.337500X-0.475000X-0.337500X0*%
%ADD11RoundRect,0.250000X0.337500X0.475000X-0.337500X0.475000X-0.337500X-0.475000X0.337500X-0.475000X0*%
%ADD12RoundRect,0.250000X-0.450000X0.350000X-0.450000X-0.350000X0.450000X-0.350000X0.450000X0.350000X0*%
%ADD13RoundRect,0.250000X-0.350000X-0.450000X0.350000X-0.450000X0.350000X0.450000X-0.350000X0.450000X0*%
%ADD14RoundRect,0.250000X-0.475000X0.337500X-0.475000X-0.337500X0.475000X-0.337500X0.475000X0.337500X0*%
%ADD15RoundRect,0.250000X0.250000X-0.250000X0.250000X0.250000X-0.250000X0.250000X-0.250000X-0.250000X0*%
%ADD16RoundRect,0.150000X0.150000X-0.825000X0.150000X0.825000X-0.150000X0.825000X-0.150000X-0.825000X0*%
%ADD17RoundRect,0.250000X-0.337500X-0.475000X0.337500X-0.475000X0.337500X0.475000X-0.337500X0.475000X0*%
%ADD18RoundRect,0.075000X-0.700000X-0.075000X0.700000X-0.075000X0.700000X0.075000X-0.700000X0.075000X0*%
%ADD19RoundRect,0.075000X-0.075000X-0.700000X0.075000X-0.700000X0.075000X0.700000X-0.075000X0.700000X0*%
%ADD20RoundRect,0.150000X0.150000X-0.512500X0.150000X0.512500X-0.150000X0.512500X-0.150000X-0.512500X0*%
%ADD21RoundRect,0.250000X0.350000X0.450000X-0.350000X0.450000X-0.350000X-0.450000X0.350000X-0.450000X0*%
%ADD22RoundRect,0.150000X-0.150000X0.512500X-0.150000X-0.512500X0.150000X-0.512500X0.150000X0.512500X0*%
%ADD23R,2.000000X0.650000*%
%ADD24RoundRect,0.250000X-0.450000X0.325000X-0.450000X-0.325000X0.450000X-0.325000X0.450000X0.325000X0*%
%ADD25R,1.270000X2.290000*%
%ADD26R,4.500000X2.000000*%
%ADD27RoundRect,0.250000X0.450000X-0.350000X0.450000X0.350000X-0.450000X0.350000X-0.450000X-0.350000X0*%
%ADD28R,0.700000X0.450000*%
%ADD29RoundRect,0.150000X-0.825000X-0.150000X0.825000X-0.150000X0.825000X0.150000X-0.825000X0.150000X0*%
G04 APERTURE END LIST*
D10*
%TO.C,C7*%
X193360000Y-70114500D03*
X193360000Y-68039500D03*
%TD*%
D11*
%TO.C,C14*%
X164613500Y-74676000D03*
X162538500Y-74676000D03*
%TD*%
D10*
%TO.C,FB1*%
X157226000Y-62759500D03*
X157226000Y-60684500D03*
%TD*%
D12*
%TO.C,R14*%
X190820000Y-67818000D03*
X190820000Y-69818000D03*
%TD*%
D13*
%TO.C,R3*%
X175612000Y-71109000D03*
X177612000Y-71109000D03*
%TD*%
D10*
%TO.C,C20*%
X159512000Y-68347500D03*
X159512000Y-66272500D03*
%TD*%
D13*
%TO.C,R10*%
X198456000Y-72887000D03*
X200456000Y-72887000D03*
%TD*%
D14*
%TO.C,C4*%
X159832000Y-70071500D03*
X159832000Y-72146500D03*
%TD*%
D15*
%TO.C,D4*%
X149352000Y-65258000D03*
X149352000Y-62758000D03*
%TD*%
D14*
%TO.C,C13*%
X173482000Y-73152000D03*
X173482000Y-75227000D03*
%TD*%
D10*
%TO.C,C17*%
X217424000Y-70655000D03*
X217424000Y-68580000D03*
%TD*%
D16*
%TO.C,U1*%
X151323000Y-65964000D03*
X152593000Y-65964000D03*
X153863000Y-65964000D03*
X155133000Y-65964000D03*
X155133000Y-61014000D03*
X153863000Y-61014000D03*
X152593000Y-61014000D03*
X151323000Y-61014000D03*
%TD*%
D17*
%TO.C,C11*%
X169396500Y-74676000D03*
X171471500Y-74676000D03*
%TD*%
D13*
%TO.C,R9*%
X202520000Y-75046000D03*
X204520000Y-75046000D03*
%TD*%
D18*
%TO.C,U2*%
X162031000Y-63041000D03*
X162031000Y-63541000D03*
X162031000Y-64041000D03*
X162031000Y-64541000D03*
X162031000Y-65041000D03*
X162031000Y-65541000D03*
X162031000Y-66041000D03*
X162031000Y-66541000D03*
X162031000Y-67041000D03*
X162031000Y-67541000D03*
X162031000Y-68041000D03*
X162031000Y-68541000D03*
X162031000Y-69041000D03*
X162031000Y-69541000D03*
X162031000Y-70041000D03*
X162031000Y-70541000D03*
D19*
X163956000Y-72466000D03*
X164456000Y-72466000D03*
X164956000Y-72466000D03*
X165456000Y-72466000D03*
X165956000Y-72466000D03*
X166456000Y-72466000D03*
X166956000Y-72466000D03*
X167456000Y-72466000D03*
X167956000Y-72466000D03*
X168456000Y-72466000D03*
X168956000Y-72466000D03*
X169456000Y-72466000D03*
X169956000Y-72466000D03*
X170456000Y-72466000D03*
X170956000Y-72466000D03*
X171456000Y-72466000D03*
D18*
X173381000Y-70541000D03*
X173381000Y-70041000D03*
X173381000Y-69541000D03*
X173381000Y-69041000D03*
X173381000Y-68541000D03*
X173381000Y-68041000D03*
X173381000Y-67541000D03*
X173381000Y-67041000D03*
X173381000Y-66541000D03*
X173381000Y-66041000D03*
X173381000Y-65541000D03*
X173381000Y-65041000D03*
X173381000Y-64541000D03*
X173381000Y-64041000D03*
X173381000Y-63541000D03*
X173381000Y-63041000D03*
D19*
X171456000Y-61116000D03*
X170956000Y-61116000D03*
X170456000Y-61116000D03*
X169956000Y-61116000D03*
X169456000Y-61116000D03*
X168956000Y-61116000D03*
X168456000Y-61116000D03*
X167956000Y-61116000D03*
X167456000Y-61116000D03*
X166956000Y-61116000D03*
X166456000Y-61116000D03*
X165956000Y-61116000D03*
X165456000Y-61116000D03*
X164956000Y-61116000D03*
X164456000Y-61116000D03*
X163956000Y-61116000D03*
%TD*%
D12*
%TO.C,R13*%
X175834000Y-65013000D03*
X175834000Y-67013000D03*
%TD*%
D20*
%TO.C,Q3*%
X179710000Y-71230500D03*
X181610000Y-71230500D03*
X180660000Y-68955500D03*
%TD*%
D13*
%TO.C,R6*%
X153940000Y-72390000D03*
X155940000Y-72390000D03*
%TD*%
D17*
%TO.C,C9*%
X166160500Y-58663000D03*
X168235500Y-58663000D03*
%TD*%
D10*
%TO.C,C18*%
X211582000Y-70633500D03*
X211582000Y-68558500D03*
%TD*%
D12*
%TO.C,R8*%
X157038000Y-68331000D03*
X157038000Y-70331000D03*
%TD*%
D21*
%TO.C,R5*%
X155686000Y-74665000D03*
X153686000Y-74665000D03*
%TD*%
D22*
%TO.C,U3*%
X143891000Y-58668500D03*
X142941000Y-58668500D03*
X141991000Y-58668500D03*
X141991000Y-60943500D03*
X143891000Y-60943500D03*
%TD*%
D10*
%TO.C,C12*%
X174818000Y-61732500D03*
X174818000Y-59657500D03*
%TD*%
D14*
%TO.C,C6*%
X203266000Y-68547500D03*
X203266000Y-70622500D03*
%TD*%
D23*
%TO.C,Q1*%
X142501000Y-63936000D03*
X142501000Y-65836000D03*
X145921000Y-64886000D03*
%TD*%
D21*
%TO.C,R7*%
X154974000Y-68569000D03*
X152974000Y-68569000D03*
%TD*%
D12*
%TO.C,R11*%
X184978000Y-73173000D03*
X184978000Y-75173000D03*
%TD*%
D24*
%TO.C,L1*%
X149291000Y-58781000D03*
X149291000Y-60831000D03*
%TD*%
D10*
%TO.C,C1*%
X157828637Y-74260740D03*
X157828637Y-72185740D03*
%TD*%
D25*
%TO.C,J1*%
X205552000Y-63997000D03*
X205552000Y-58947000D03*
X203012000Y-63997000D03*
X203012000Y-58947000D03*
X200472000Y-63997000D03*
X200472000Y-58947000D03*
X197932000Y-63997000D03*
X197932000Y-58947000D03*
X195392000Y-63997000D03*
X195392000Y-58947000D03*
%TD*%
D13*
%TO.C,R2*%
X183486000Y-67807000D03*
X185486000Y-67807000D03*
%TD*%
D14*
%TO.C,C10*%
X159766000Y-61446500D03*
X159766000Y-63521500D03*
%TD*%
D11*
%TO.C,C15*%
X163917500Y-58917000D03*
X161842500Y-58917000D03*
%TD*%
D26*
%TO.C,Y1*%
X208670000Y-74168000D03*
X217170000Y-74168000D03*
%TD*%
D11*
%TO.C,C8*%
X204557500Y-72887000D03*
X202482500Y-72887000D03*
%TD*%
D17*
%TO.C,C5*%
X194354500Y-72887000D03*
X196429500Y-72887000D03*
%TD*%
D27*
%TO.C,R12*%
X188534000Y-69818000D03*
X188534000Y-67818000D03*
%TD*%
D11*
%TO.C,C3*%
X149606000Y-67818000D03*
X147531000Y-67818000D03*
%TD*%
D28*
%TO.C,D5*%
X185470000Y-71505000D03*
X185470000Y-70205000D03*
X183470000Y-70855000D03*
%TD*%
D10*
%TO.C,C19*%
X157480000Y-66569500D03*
X157480000Y-64494500D03*
%TD*%
D12*
%TO.C,R1*%
X146116000Y-58806000D03*
X146116000Y-60806000D03*
%TD*%
D11*
%TO.C,C2*%
X154961500Y-58674000D03*
X152886500Y-58674000D03*
%TD*%
D29*
%TO.C,U4*%
X195965000Y-66791000D03*
X195965000Y-68061000D03*
X195965000Y-69331000D03*
X195965000Y-70601000D03*
X200915000Y-70601000D03*
X200915000Y-69331000D03*
X200915000Y-68061000D03*
X200915000Y-66791000D03*
%TD*%
D17*
%TO.C,C21*%
X157945000Y-58674000D03*
X160020000Y-58674000D03*
%TD*%
M02*
