%TF.GenerationSoftware,KiCad,Pcbnew,7.0.7*%
%TF.CreationDate,2024-07-03T20:06:24-05:00*%
%TF.ProjectId,LightsaberDesign,4c696768-7473-4616-9265-724465736967,rev?*%
%TF.SameCoordinates,Original*%
%TF.FileFunction,Drillmap*%
%TF.FilePolarity,Positive*%
%FSLAX45Y45*%
G04 Gerber Fmt 4.5, Leading zero omitted, Abs format (unit mm)*
G04 Created by KiCad (PCBNEW 7.0.7) date 2024-07-03 20:06:24*
%MOMM*%
%LPD*%
G01*
G04 APERTURE LIST*
%ADD10C,0.100000*%
%ADD11C,0.200000*%
G04 APERTURE END LIST*
D10*
X13976600Y-5663100D02*
X22104600Y-5663100D01*
X22104600Y-7695100D01*
X13976600Y-7695100D01*
X13976600Y-5663100D01*
D11*
X14232377Y-8011584D02*
X14232377Y-7811584D01*
X14232377Y-7811584D02*
X14279996Y-7811584D01*
X14279996Y-7811584D02*
X14308567Y-7821108D01*
X14308567Y-7821108D02*
X14327615Y-7840155D01*
X14327615Y-7840155D02*
X14337139Y-7859203D01*
X14337139Y-7859203D02*
X14346662Y-7897298D01*
X14346662Y-7897298D02*
X14346662Y-7925869D01*
X14346662Y-7925869D02*
X14337139Y-7963965D01*
X14337139Y-7963965D02*
X14327615Y-7983012D01*
X14327615Y-7983012D02*
X14308567Y-8002060D01*
X14308567Y-8002060D02*
X14279996Y-8011584D01*
X14279996Y-8011584D02*
X14232377Y-8011584D01*
X14432377Y-8011584D02*
X14432377Y-7878250D01*
X14432377Y-7916346D02*
X14441901Y-7897298D01*
X14441901Y-7897298D02*
X14451424Y-7887774D01*
X14451424Y-7887774D02*
X14470472Y-7878250D01*
X14470472Y-7878250D02*
X14489520Y-7878250D01*
X14556186Y-8011584D02*
X14556186Y-7878250D01*
X14556186Y-7811584D02*
X14546662Y-7821108D01*
X14546662Y-7821108D02*
X14556186Y-7830631D01*
X14556186Y-7830631D02*
X14565710Y-7821108D01*
X14565710Y-7821108D02*
X14556186Y-7811584D01*
X14556186Y-7811584D02*
X14556186Y-7830631D01*
X14679996Y-8011584D02*
X14660948Y-8002060D01*
X14660948Y-8002060D02*
X14651424Y-7983012D01*
X14651424Y-7983012D02*
X14651424Y-7811584D01*
X14784758Y-8011584D02*
X14765710Y-8002060D01*
X14765710Y-8002060D02*
X14756186Y-7983012D01*
X14756186Y-7983012D02*
X14756186Y-7811584D01*
X15013329Y-8011584D02*
X15013329Y-7811584D01*
X15013329Y-7811584D02*
X15079996Y-7954441D01*
X15079996Y-7954441D02*
X15146662Y-7811584D01*
X15146662Y-7811584D02*
X15146662Y-8011584D01*
X15327615Y-8011584D02*
X15327615Y-7906822D01*
X15327615Y-7906822D02*
X15318091Y-7887774D01*
X15318091Y-7887774D02*
X15299043Y-7878250D01*
X15299043Y-7878250D02*
X15260948Y-7878250D01*
X15260948Y-7878250D02*
X15241901Y-7887774D01*
X15327615Y-8002060D02*
X15308567Y-8011584D01*
X15308567Y-8011584D02*
X15260948Y-8011584D01*
X15260948Y-8011584D02*
X15241901Y-8002060D01*
X15241901Y-8002060D02*
X15232377Y-7983012D01*
X15232377Y-7983012D02*
X15232377Y-7963965D01*
X15232377Y-7963965D02*
X15241901Y-7944917D01*
X15241901Y-7944917D02*
X15260948Y-7935393D01*
X15260948Y-7935393D02*
X15308567Y-7935393D01*
X15308567Y-7935393D02*
X15327615Y-7925869D01*
X15422853Y-7878250D02*
X15422853Y-8078250D01*
X15422853Y-7887774D02*
X15441901Y-7878250D01*
X15441901Y-7878250D02*
X15479996Y-7878250D01*
X15479996Y-7878250D02*
X15499043Y-7887774D01*
X15499043Y-7887774D02*
X15508567Y-7897298D01*
X15508567Y-7897298D02*
X15518091Y-7916346D01*
X15518091Y-7916346D02*
X15518091Y-7973488D01*
X15518091Y-7973488D02*
X15508567Y-7992536D01*
X15508567Y-7992536D02*
X15499043Y-8002060D01*
X15499043Y-8002060D02*
X15479996Y-8011584D01*
X15479996Y-8011584D02*
X15441901Y-8011584D01*
X15441901Y-8011584D02*
X15422853Y-8002060D01*
X15603805Y-7992536D02*
X15613329Y-8002060D01*
X15613329Y-8002060D02*
X15603805Y-8011584D01*
X15603805Y-8011584D02*
X15594282Y-8002060D01*
X15594282Y-8002060D02*
X15603805Y-7992536D01*
X15603805Y-7992536D02*
X15603805Y-8011584D01*
X15603805Y-7887774D02*
X15613329Y-7897298D01*
X15613329Y-7897298D02*
X15603805Y-7906822D01*
X15603805Y-7906822D02*
X15594282Y-7897298D01*
X15594282Y-7897298D02*
X15603805Y-7887774D01*
X15603805Y-7887774D02*
X15603805Y-7906822D01*
M02*
